<?xml version="1.0" encoding="iso-8859-1"?>
<!-- Generator: Adobe Illustrator 19.0.0, SVG Export Plug-In . SVG Version: 6.00 Build 0)  -->
<svg version="1.1" id="Capa_1" xmlns="http://www.w3.org/2000/svg" xmlns:xlink="http://www.w3.org/1999/xlink" x="0px" y="0px"
	 viewBox="0 0 480 480" style="enable-background:new 0 0 480 480;" xml:space="preserve">
<polygon style="fill:#5EAC24;" points="160,72 8,72 8,280 160,280 320,280 472,280 472,72 320,72 "/>
<g>
	<rect y="304" style="fill:#47821B;" width="160" height="16"/>
	<rect y="336" style="fill:#47821B;" width="160" height="16"/>
	<rect y="368" style="fill:#47821B;" width="160" height="16"/>
	<rect y="400" style="fill:#47821B;" width="160" height="16"/>
	<rect x="320" y="304" style="fill:#47821B;" width="160" height="16"/>
	<rect x="320" y="336" style="fill:#47821B;" width="160" height="16"/>
	<rect x="320" y="368" style="fill:#47821B;" width="160" height="16"/>
	<rect x="320" y="400" style="fill:#47821B;" width="160" height="16"/>
</g>
<polyline style="fill:#D4C8B8;" points="184,280 184,424 296,424 296,280 "/>
<polyline style="fill:#EBE5DD;" points="296,280 296,56 184,56 184,280 "/>
<g>
	<path style="fill:#69C229;" d="M144,248c-32-42.667-32-101.333,0-144H56c0,8.837-7.163,16-16,16v112c8.837,0,16,7.163,16,16H144z"
		/>
	<path style="fill:#69C229;" d="M336,248c32-42.667,32-101.333,0-144h88c0,8.837,7.163,16,16,16v112c-8.837,0-16,7.163-16,16H336z"
		/>
</g>
<path style="fill:#FFD422;" d="M248,160h-16c-4.414,0-8-3.59-8-8v-8c0-4.41,3.586-8,8-8h16c4.414,0,8,3.59,8,8h16
	c0-13.234-10.766-24-24-24V96h-16v24c-13.234,0-24,10.766-24,24v8c0,13.234,10.766,24,24,24h16c4.414,0,8,3.59,8,8v8
	c0,4.41-3.586,8-8,8h-16c-4.414,0-8-3.59-8-8h-16c0,13.234,10.766,24,24,24v24h16v-24c13.234,0,24-10.766,24-24v-8
	C272,170.766,261.234,160,248,160z"/>
<g>
	<path style="fill:#FFFFFF;" d="M104,232H80c-13.234,0-24-10.766-24-24v-16h16v16c0,4.41,3.586,8,8,8h24V232z"/>
	<rect x="56" y="160" style="fill:#FFFFFF;" width="16" height="16"/>
	<path style="fill:#FFFFFF;" d="M424,168h-16v-24c0-4.41-3.586-8-8-8h-8v-16h8c13.234,0,24,10.766,24,24V168z"/>
	<rect x="408" y="184" style="fill:#FFFFFF;" width="16" height="16"/>
</g>
<path d="M472,64H320v16h144v192H320v16h152c4.422,0,8-3.582,8-8V72C480,67.582,476.422,64,472,64z"/>
<path d="M0,72v208c0,4.418,3.578,8,8,8h152v-16H16V80h144V64H8C3.578,64,0,67.582,0,72z"/>
<rect y="304" width="160" height="16"/>
<rect y="336" width="160" height="16"/>
<rect y="368" width="160" height="16"/>
<rect y="400" width="160" height="16"/>
<rect x="320" y="304" width="160" height="16"/>
<rect x="320" y="336" width="160" height="16"/>
<rect x="320" y="368" width="160" height="16"/>
<rect x="320" y="400" width="160" height="16"/>
<path d="M248,200h-16c-4.414,0-8-3.59-8-8h-16c0,13.234,10.766,24,24,24v24h16v-24c13.234,0,24-10.766,24-24v-8
	c0-13.234-10.766-24-24-24h-16c-4.414,0-8-3.59-8-8v-8c0-4.41,3.586-8,8-8h16c4.414,0,8,3.59,8,8h16c0-13.234-10.766-24-24-24V96
	h-16v24c-13.234,0-24,10.766-24,24v8c0,13.234,10.766,24,24,24h16c4.414,0,8,3.59,8,8v8C256,196.41,252.414,200,248,200z"/>
<path d="M296,48H184c-4.422,0-8,3.582-8,8v224v144c0,4.418,3.578,8,8,8h112c4.422,0,8-3.582,8-8V280V56
	C304,51.582,300.422,48,296,48z M288,64v208h-96V64H288z M192,416V288h96v128H192z"/>
<path d="M151.156,100.422C149.797,97.711,147.031,96,144,96H56c-4.422,0-8,3.582-8,8c0,4.41-3.586,8-8,8c-4.422,0-8,3.582-8,8v112
	c0,4.418,3.578,8,8,8c4.414,0,8,3.59,8,8c0,4.418,3.578,8,8,8h88c3.031,0,5.797-1.711,7.156-4.422
	c1.352-2.711,1.063-5.953-0.758-8.379c-29.672-39.566-29.672-94.832,0-134.398C152.219,106.375,152.508,103.133,151.156,100.422z
	 M129.164,240H62.633c-2.414-6.809-7.82-12.215-14.633-14.629v-98.742c6.813-2.414,12.219-7.82,14.633-14.629h66.531
	C106.5,151.398,106.5,200.602,129.164,240z"/>
<path d="M328.844,251.578c1.359,2.711,4.125,4.422,7.156,4.422h88c4.422,0,8-3.582,8-8c0-4.41,3.586-8,8-8c4.422,0,8-3.582,8-8V120
	c0-4.418-3.578-8-8-8c-4.414,0-8-3.59-8-8c0-4.418-3.578-8-8-8h-88c-3.031,0-5.797,1.711-7.156,4.422
	c-1.352,2.711-1.063,5.953,0.758,8.379c29.672,39.566,29.672,94.832,0,134.398C327.781,245.625,327.492,248.867,328.844,251.578z
	 M350.836,112h66.531c2.414,6.809,7.82,12.215,14.633,14.629v98.742c-6.813,2.414-12.219,7.82-14.633,14.629h-66.531
	C373.5,200.602,373.5,151.398,350.836,112z"/>
<g>
</g>
<g>
</g>
<g>
</g>
<g>
</g>
<g>
</g>
<g>
</g>
<g>
</g>
<g>
</g>
<g>
</g>
<g>
</g>
<g>
</g>
<g>
</g>
<g>
</g>
<g>
</g>
<g>
</g>
</svg>
