<?xml version="1.0" encoding="iso-8859-1"?>
<!-- Generator: Adobe Illustrator 19.0.0, SVG Export Plug-In . SVG Version: 6.00 Build 0)  -->
<svg version="1.1" id="Capa_1" xmlns="http://www.w3.org/2000/svg" xmlns:xlink="http://www.w3.org/1999/xlink" x="0px" y="0px"
	 viewBox="0 0 480 480" style="enable-background:new 0 0 480 480;" xml:space="preserve">
<g>
	<g>
		<g>
			<path d="M472,64H320v16h144v192H320v16h152c4.418,0,8-3.582,8-8V72C480,67.582,476.418,64,472,64z"/>
			<path d="M0,72v208c0,4.418,3.582,8,8,8h152v-16H16V80h144V64H8C3.582,64,0,67.582,0,72z"/>
			<rect y="304" width="160" height="16"/>
			<rect y="336" width="160" height="16"/>
			<rect y="368" width="160" height="16"/>
			<rect y="400" width="160" height="16"/>
			<rect x="320" y="304" width="160" height="16"/>
			<rect x="320" y="336" width="160" height="16"/>
			<rect x="320" y="368" width="160" height="16"/>
			<rect x="320" y="400" width="160" height="16"/>
			<path d="M248,200h-16c-4.418,0-8-3.582-8-8h-16c0,13.255,10.745,24,24,24v24h16v-24c13.255,0,24-10.745,24-24v-8
				c0-13.255-10.745-24-24-24h-16c-4.418,0-8-3.582-8-8v-8c0-4.418,3.582-8,8-8h16c4.418,0,8,3.582,8,8h16c0-13.255-10.745-24-24-24
				V96h-16v24c-13.255,0-24,10.745-24,24v8c0,13.255,10.745,24,24,24h16c4.418,0,8,3.582,8,8v8C256,196.418,252.418,200,248,200z"/>
			<path d="M296,48H184c-4.418,0-8,3.582-8,8v368c0,4.418,3.582,8,8,8h112c4.418,0,8-3.582,8-8V56C304,51.582,300.418,48,296,48z
				 M288,416h-96V288h96V416z M288,272h-96V64h96V272z"/>
			<path d="M151.2,100.424c-1.362-2.725-4.153-4.441-7.2-4.424H56c-4.418,0-8,3.582-8,8s-3.582,8-8,8s-8,3.582-8,8v112
				c0,4.418,3.582,8,8,8s8,3.582,8,8s3.582,8,8,8h88c4.418,0,8-3.582,8-8c0-1.731-0.561-3.415-1.6-4.8
				c-29.671-39.887-29.671-94.513,0-134.4C152.232,106.385,152.542,103.142,151.2,100.424z M129.168,240H62.632
				C60.2,233.173,54.827,227.8,48,225.368v-98.736c6.827-2.432,12.2-7.805,14.632-14.632h66.536
				C106.504,151.657,106.504,200.343,129.168,240z"/>
			<path d="M328.84,251.576c1.355,2.712,4.128,4.425,7.16,4.424h88c4.418,0,8-3.582,8-8s3.582-8,8-8s8-3.582,8-8V120
				c0-4.418-3.582-8-8-8s-8-3.582-8-8s-3.582-8-8-8h-88c-4.418,0-8,3.582-8,8c0,1.731,0.561,3.415,1.6,4.8
				c29.671,39.887,29.671,94.513,0,134.4C327.781,245.623,327.487,248.865,328.84,251.576z M350.832,112h66.536
				c2.432,6.827,7.805,12.2,14.632,14.632v98.736c-6.827,2.432-12.2,7.805-14.632,14.632h-66.536
				C373.504,200.345,373.504,151.655,350.832,112z"/>
		</g>
	</g>
</g>
<g>
</g>
<g>
</g>
<g>
</g>
<g>
</g>
<g>
</g>
<g>
</g>
<g>
</g>
<g>
</g>
<g>
</g>
<g>
</g>
<g>
</g>
<g>
</g>
<g>
</g>
<g>
</g>
<g>
</g>
</svg>
