<svg id="Capa_1" enable-background="new 0 0 506.874 506.874" height="512" viewBox="0 0 506.874 506.874" width="512" xmlns="http://www.w3.org/2000/svg"><g><path d="m10 483.479 112.041-273.917 175.279 175.278-273.917 112.041c-6.443-6.443-6.96-6.959-13.403-13.402zm387.874-263.472c-11.046 0-20 8.954-20 20s8.954 20 20 20 20-8.954 20-20c0-11.045-8.954-20-20-20z" fill="#ffda8f"/><path d="m256.022 343.543 41.297 41.297-40.298 16.483-182.497-75.592 20.065-49.055zm-138.368 114.787 69.684-28.503-132.879-55.04-20.065 49.056zm359.22-448.323c-11.046 0-20 8.954-20 20s8.954 20 20 20 20-8.954 20-20-8.954-20-20-20z" fill="#ff9eb1"/><path d="m476.874 141.007c-11.046 0-20 8.954-20 20s8.954 20 20 20 20-8.954 20-20c0-11.045-8.954-20-20-20zm-143-86.404c0 14.912-12.088 27-27 27s-27-12.088-27-27 12.088-27 27-27 27 12.089 27 27z" fill="#e0ef9b"/><path d="m463.247 89.116-60.12-16.247c-7.167-1.92-14.815.129-20.061 5.375l-25.437 25.437 71.707 19.346zm-131.875 117.19c7.167 1.92 14.815-.129 20.061-5.375l33.916-33.916c-5.247 5.247-12.894 7.296-20.061 5.375l-48.62-13.061c-7.167-1.92-14.815.129-20.061 5.375l-25.437 25.437zm-86.004 86.548c6.902 1.849 14.266-.124 19.319-5.176l34.23-34.23c-5.247 5.247-12.894 7.296-20.061 5.375l-49.075-13.15c-6.902-1.849-14.266.124-19.319 5.176l-25.752 25.751z" fill="#fff"/><path d="m349.15 112.161 33.916-33.916c-5.247 5.247-7.296 12.894-5.375 20.061l13.035 48.647c1.92 7.167-.129 14.815-5.375 20.062l-33.602 33.602c5.052-5.052 7.026-12.417 5.176-19.318l-13.15-49.075c-1.921-7.169.128-14.817 5.375-20.063zm-91.835 106.521 13.176 49.049c1.849 6.902-.124 14.266-5.176 19.319l33.602-33.602c5.247-5.247 7.296-12.894 5.375-20.062l-13.061-48.62c-1.92-7.167.129-14.815 5.375-20.061l-33.916 33.915c-5.246 5.247-7.295 12.894-5.375 20.062z" fill="#e0ef9b"/><path d="m193.316 63.374c6.81-2.947 11.53-9.303 12.383-16.674l4.134-35.727-57.22 24.717c-6.81 2.947-11.53 9.303-12.383 16.674l-4.135 35.736zm-13.642 121.249c6.558-2.838 11.103-8.958 11.925-16.056l5.564-48.088c-.853 7.371-5.573 13.727-12.383 16.674l-46.628 20.177c-6.558 2.838-11.103 8.958-11.925 16.056l-4.186 36.176z" fill="#ffda8f"/><path d="m197.16 120.482-5.465 47.198c.829-7.096-2.198-14.089-7.938-18.35l-40.792-30.258c-5.954-4.43-9.097-11.691-8.251-19.062l5.515-47.648c-.855 7.373 2.291 14.644 8.251 19.062l40.437 29.994c5.952 4.42 9.098 11.691 8.243 19.064z" fill="#fff"/><path d="m349.857 369.237 25.407-57.323-35.777 3.758c-7.38.775-13.785 5.428-16.803 12.207l-25.211 56.945 36.189-3.802c7.118-.747 13.294-5.242 16.195-11.785zm147.01-70.097-35.777 3.758c-7.38.775-13.785 5.428-16.803 12.207l-20.45 46.003c-3.018 6.778-9.424 11.432-16.803 12.207l47.702-5.011c7.38-.775 13.785-5.428 16.803-12.207z" fill="#ff9eb1"/><path d="m406.163 319.11 29.861 41.105c4.2 5.781 11.164 8.882 18.27 8.136l-47.26 4.965c-7.38.775-14.612-2.445-18.973-8.449l-29.6-40.746c-4.361-6.003-11.593-9.224-18.973-8.449l47.702-5.011c7.379-.775 14.612 2.445 18.973 8.449z" fill="#fff"/><path d="m397.874 210.007c-16.542 0-30 13.458-30 30s13.458 30 30 30 30-13.458 30-30-13.458-30-30-30zm0 40c-5.514 0-10-4.486-10-10s4.486-10 10-10 10 4.486 10 10-4.486 10-10 10zm79-190c16.542 0 30-13.458 30-30s-13.458-30-30-30-30 13.458-30 30 13.458 30 30 30zm0-40c5.514 0 10 4.486 10 10s-4.486 10-10 10-10-4.486-10-10 4.486-10 10-10zm0 111c-16.542 0-30 13.458-30 30s13.458 30 30 30 30-13.458 30-30-13.458-30-30-30zm0 40c-5.514 0-10-4.486-10-10s4.486-10 10-10 10 4.486 10 10-4.486 10-10 10zm-170-79.403c20.402 0 37-16.598 37-37s-16.598-37-37-37-37 16.598-37 37 16.597 37 37 37zm0-54c9.374 0 17 7.626 17 17s-7.626 17-17 17-17-7.626-17-17 7.626-17 17-17zm-136.855 323.536c0 5.524-4.478 10.003-10.003 10.003s-10.003-4.479-10.003-10.003 4.479-10.003 10.003-10.003 10.003 4.479 10.003 10.003zm325.803-71.946-35.776 3.758c-10.897 1.145-20.437 8.075-24.897 18.093l-8.532 19.204-12.363-17.017c-6.44-8.865-17.217-13.657-28.108-12.517l-47.701 5.011h-.002c-10.897 1.145-20.437 8.075-24.895 18.084l-19.445 43.669-69.962-69.962 18.21 4.879c10.584 2.836 21.972-.216 29.72-7.963l33.916-33.917c7.748-7.748 10.8-19.136 7.964-29.72l-.001-.006-5.448-20.28 20.283 5.453c10.559 2.829 21.917-.204 29.664-7.911.018-.018 33.972-33.968 33.972-33.968 7.749-7.748 10.801-19.137 7.964-29.722-.004-.016-.009-.031-.013-.046l-5.436-20.287 31.917 8.552c4.271 1.119 7.759-.688 9.659-2.588l33.916-33.916c6.221-7.071 1.64-15.007-4.483-16.73l-60.228-16.137c-10.585-2.836-21.976.215-29.723 7.964l-33.915 33.916c-7.749 7.748-10.801 19.136-7.964 29.72l5.442 20.312-20.302-5.454c-10.585-2.836-21.973.216-29.721 7.965l-33.916 33.916c-7.748 7.748-10.799 19.136-7.962 29.727l5.452 20.295-20.74-5.557c-10.32-2.765-21.424.21-28.978 7.765l-16.494 16.495-47.378-47.378 43.72-18.919c10.055-4.351 17.084-13.814 18.344-24.696 0-.002.001-.004.001-.005l5.513-47.646c1.26-10.885-3.422-21.706-12.22-28.239-.001-.001-.003-.002-.005-.003l-16.866-12.51 19.283-8.325c10.057-4.352 17.086-13.817 18.345-24.702l4.134-35.727c.752-8.019-7.119-13.245-13.899-10.33l-57.226 24.72c-10.057 4.352-17.087 13.817-18.346 24.703l-5.513 47.646c-1.26 10.885 3.422 21.706 12.225 28.243l16.878 12.519-19.706 8.527c-9.805 4.243-16.659 13.471-17.887 24.084l-4.028 34.811-111.521 272.646c-1.525 3.729-.664 8.008 2.185 10.857l13.402 13.402c3.091 3.055 7.317 3.571 10.857 2.185l272.596-111.5 34.799-3.656c10.626-1.117 19.926-7.873 24.271-17.632l8.744-19.637 12.373 17.031c5.81 7.999 15.758 13.652 28.108 12.518l47.702-5.011c.003 0 .005-.001.008-.001 10.895-1.147 20.43-8.075 24.889-18.088l25.327-56.958c2.675-5.68-1.018-14.567-10.183-14.009zm-95.282-206.666 43.498 11.656-17.586 17.586-37.493-10.046-1.609-6.006c-1.992-7.549 4.653-15.356 13.19-13.19zm-44.319 36.704 13.189-13.19 11.655 43.499c.003.012.006.024.01.036.977 3.694-.094 7.664-2.797 10.367l-13.189 13.19-11.655-43.5c-.994-3.705.075-7.69 2.787-10.402zm-42.149 49.752 31.464 8.453 1.613 6.021c2.031 7.872-4.84 15.227-13.182 13.19l-31.463-8.458-1.615-6.012c-1.754-6.986 3.505-15.112 13.183-13.194zm-44.312 36.707 13.193-13.193 11.679 43.475c.992 3.704-.075 7.69-2.787 10.402l-13.193 13.192-11.679-43.475c-.993-3.703.075-7.689 2.787-10.401zm-52.228 52.229c2.518-2.518 6.219-3.51 9.66-2.588l31.91 8.55 1.614 6.007c2.072 8.61-5.471 15.094-13.189 13.19l-43.499-11.656zm-60.953-213.049 41.332-17.854-2.145 18.534c-.441 3.81-2.901 7.122-6.413 8.642l-29.913 12.914-4.999-3.708c-6.245-4.779-6.051-14.843 2.138-18.528zm-7.651 66.175c-3.079-2.287-4.718-6.074-4.277-9.884l2.145-18.533 36.162 26.821c3.075 2.287 4.712 6.072 4.271 9.879l-2.145 18.534zm-12.768 63.489c.41-3.538 2.694-6.614 5.962-8.028l30.319-13.12 4.997 3.706c6.015 4.406 6.306 14.527-2.145 18.528l-41.329 17.884zm-10.557 52.731 87.8 87.8-105.79-43.818zm-99.831 257.842-3.999-3.999 18.073-44.185 51.45 21.312zm91.786-37.642-70.14-29.053 12.494-30.544 100.978 41.827zm139.182-57.079-51.326-21.26c-12.292-5.091-19.942 13.379-7.65 18.47l32.718 13.558-43.331 17.77-119.668-49.568 12.494-30.545 34.636 14.345c12.298 5.091 19.948-13.389 7.65-18.48l-34.713-14.38 12.491-30.538 150.316 62.261 29.065 29.064zm83.843-25.174c-1.448 3.253-4.548 5.505-8.09 5.877l-18.992 1.996 18.317-41.139c3.765-8.327 14.41-7.988 18.552-1.949l3.655 5.031zm65.406-1.843c-3.81.402-7.583-1.277-9.837-4.38 0 0 0 0 0-.001l-26.469-36.434 18.551-1.949c3.824-.396 7.584 1.278 9.838 4.381l26.469 36.434zm56.416-11.341c-4.402 8.559-14.128 7.736-18.551 1.948l-3.658-5.035 13.225-29.77c1.561-3.504 4.899-5.929 8.714-6.33l18.561-1.95z"/></g></svg>