<?xml version="1.0" encoding="UTF-8" standalone="no"?>
<svg
   xmlns:dc="http://purl.org/dc/elements/1.1/"
   xmlns:cc="http://creativecommons.org/ns#"
   xmlns:rdf="http://www.w3.org/1999/02/22-rdf-syntax-ns#"
   xmlns:svg="http://www.w3.org/2000/svg"
   xmlns="http://www.w3.org/2000/svg"
   xmlns:xlink="http://www.w3.org/1999/xlink"
   xmlns:sodipodi="http://sodipodi.sourceforge.net/DTD/sodipodi-0.dtd"
   xmlns:inkscape="http://www.inkscape.org/namespaces/inkscape"
   id="icons"
   enable-background="new 0 0 64 64"
   height="512"
   viewBox="0 0 64 64"
   width="512"
   version="1.1"
   sodipodi:docname="ruleta-de-la-fortuna.svg"
   inkscape:version="0.92.4 (5da689c313, 2019-01-14)">
  <metadata
     id="metadata951">
    <rdf:RDF>
      <cc:Work
         rdf:about="">
        <dc:format>image/svg+xml</dc:format>
        <dc:type
           rdf:resource="http://purl.org/dc/dcmitype/StillImage" />
        <dc:title />
      </cc:Work>
    </rdf:RDF>
  </metadata>
  <defs
     id="defs949" />
  <sodipodi:namedview
     pagecolor="#ffffff"
     bordercolor="#666666"
     borderopacity="1"
     objecttolerance="10"
     gridtolerance="10"
     guidetolerance="10"
     inkscape:pageopacity="0"
     inkscape:pageshadow="2"
     inkscape:window-width="1920"
     inkscape:window-height="1017"
     id="namedview947"
     showgrid="false"
     inkscape:snap-page="true"
     inkscape:zoom="1.1711456"
     inkscape:cx="16.865701"
     inkscape:cy="162.31896"
     inkscape:window-x="-8"
     inkscape:window-y="-8"
     inkscape:window-maximized="1"
     inkscape:current-layer="icons" />
  <path
     d="m 31.835553,5.4957362 c -0.266997,0.3424529 -0.475951,0.5746243 -0.475951,0.5746243 0,0 -0.208955,-0.2321714 -0.481756,-0.5746243 C 30.51798,5.043002 30.042029,4.3871178 29.792445,3.8182979 29.682163,3.5803222 29.618316,3.353955 29.618316,3.1682179 c 0,-0.9635113 0.777774,-1.7412855 1.741286,-1.7412855 0.963511,0 1.741285,0.7777742 1.741285,1.7412855 0,0.1857371 -0.06385,0.4121043 -0.174128,0.65008 -0.249585,0.5688199 -0.725536,1.2247041 -1.091206,1.6774383 z"
     id="path884"
     inkscape:connector-curvature="0"
     style="fill:#656d78;stroke-width:0.58042848" />
  <path
     d="m 31.359602,26.385358 v 9.286856 c -2.745427,0 -5.32253,-0.73134 -7.539767,-2.025696 l 4.637624,-8.03313 0.0058,-0.0058 c 0.85323,0.493364 1.839959,0.777774 2.896339,0.777774 z"
     id="path886"
     inkscape:connector-curvature="0"
     style="fill:#8cc152;stroke-width:0.58042848" />
  <path
     d="m 30.877846,5.4957362 c 0.272801,0.3424529 0.481756,0.5746243 0.481756,0.5746243 v 8.7064275 c -1.05638,0 -2.048913,0.28441 -2.902143,0.777774 L 23.814031,7.5156274 c 2.089543,-1.2188998 4.498321,-1.9386312 7.063815,-2.0198912 z"
     id="path888"
     inkscape:connector-curvature="0"
     style="fill:#ffce54;stroke-width:0.58042848" />
  <path
     d="m 28.463263,25.607584 -0.0058,0.0058 -4.637624,8.03313 c -2.292697,-1.317568 -4.208111,-3.227178 -5.525683,-5.519871 l 8.038935,-4.637623 h 0.0058 c 0.510777,0.882251 1.242117,1.613591 2.124368,2.118564 z"
     id="path890"
     inkscape:connector-curvature="0"
     style="fill:#ed5565;stroke-width:0.58042848" />
  <path
     d="m 26.327287,17.67893 0.0058,0.0058 c -0.493364,0.85323 -0.777774,1.839959 -0.777774,2.896339 v 0.0058 h -9.281053 -0.0058 v -0.0058 c 0,-2.745427 0.73134,-5.32253 2.019892,-7.539767 h 0.0058 z"
     id="path892"
     inkscape:connector-curvature="0"
     style="fill:#8cc152;stroke-width:0.58042848" />
  <path
     sodipodi:type="inkscape:offset"
     inkscape:radius="0.89301896"
     inkscape:original="M 29.792969 3.8183594 C 21.231648 4.6135464 14.527344 11.811756 14.527344 20.582031 C 14.527344 29.880495 22.06091 37.414062 31.359375 37.414062 C 40.657839 37.414062 48.191406 29.880495 48.191406 20.582031 C 48.191406 11.811756 41.489054 4.6135464 32.927734 3.8183594 C 32.678149 4.3871793 32.201607 5.0433595 31.835938 5.4960938 C 34.407236 5.5773538 36.814755 6.3025295 38.904297 7.515625 C 41.19757 8.839002 43.108844 10.74832 44.431641 13.041016 C 45.720192 15.258253 46.451172 17.836604 46.451172 20.582031 L 46.451172 20.585938 C 46.451172 23.331364 45.714333 25.909716 44.425781 28.126953 C 43.108209 30.419646 41.19113 32.328912 38.898438 33.646484 C 36.681201 34.94084 34.104802 35.671875 31.359375 35.671875 C 28.613948 35.671875 26.03755 34.94084 23.820312 33.646484 C 21.52704 32.328912 19.612494 30.419646 18.294922 28.126953 C 17.00637 25.909716 16.267578 23.331364 16.267578 20.585938 L 16.267578 20.582031 C 16.267578 17.836604 17.000512 15.258253 18.289062 13.041016 C 19.61244 10.747743 21.52176 8.8331978 23.814453 7.515625 C 25.903996 6.2967252 28.311459 5.5773538 30.876953 5.4960938 C 30.517087 5.0433596 30.043133 4.3865989 29.792969 3.8183594 z "
     xlink:href="#path894"
     style="fill:#000000;stroke-width:0.58042848"
     id="path1573"
     inkscape:href="#path894"
     d="m 29.753906,2.9257812 a 0.89310826,0.89310826 0 0 0 -0.04297,0.00391 C 20.698216,3.7668012 13.634766,11.356653 13.634766,20.582031 c 0,9.78081 7.943798,17.72461 17.724609,17.72461 9.78081,0 17.724609,-7.9438 17.724609,-17.72461 0,-9.225245 -7.061486,-16.8152287 -16.074218,-17.6523435 A 0.89310826,0.89310826 0 0 0 32.109375,3.4589844 C 31.967245,3.7829077 31.643579,4.2207416 31.357422,4.6054688 31.073819,4.2197316 30.752456,3.7839883 30.609375,3.4589844 A 0.89310826,0.89310826 0 0 0 29.753906,2.9257812 Z m 1.601563,3.3222657 a 0.89310826,0.89310826 0 0 0 0.453125,0.140625 c 2.421235,0.076518 4.680881,0.7572952 6.646484,1.8984375 a 0.89310826,0.89310826 0 0 0 0.002,0.00195 c 2.157253,1.2448838 3.957205,3.0411985 5.201172,5.1972655 a 0.89310826,0.89310826 0 0 0 0.002,0.0039 c 1.211153,2.084057 1.898438,4.504883 1.898438,7.091797 v 0.0039 c 0,2.585642 -0.692553,5.006724 -1.904297,7.091796 a 0.89310826,0.89310826 0 0 0 -0.002,0.0039 c -1.237831,2.153935 -3.043202,3.952379 -5.199219,5.191406 a 0.89310826,0.89310826 0 0 0 -0.0059,0.002 c -2.08355,1.216313 -4.500989,1.904297 -7.087891,1.904297 -2.586902,0 -5.00434,-0.687984 -7.087891,-1.904297 a 0.89310826,0.89310826 0 0 0 -0.0059,-0.002 c -2.156312,-1.238884 -3.959189,-3.037042 -5.197266,-5.191406 a 0.89310826,0.89310826 0 0 0 -0.002,-0.0039 c -1.211941,-2.085411 -1.90625,-4.506578 -1.90625,-7.091796 v -0.0039 c 0,-2.58649 0.689042,-5.007401 1.900391,-7.091797 a 0.89310826,0.89310826 0 0 0 0.002,-0.002 c 1.245068,-2.157571 3.042896,-3.9611377 5.197266,-5.1992185 a 0.89310826,0.89310826 0 0 0 0.0039,-0.00195 C 26.227437,7.1415801 28.48782,6.4652119 30.904297,6.3886719 a 0.89310826,0.89310826 0 0 0 0.451172,-0.140625 z" />
  <path
     d="m 31.359602,35.672214 c 2.745427,0 5.322529,-0.73134 7.539766,-2.025696 2.292693,-1.317572 4.208107,-3.227182 5.525679,-5.519875 1.288552,-2.217237 2.025696,-4.794339 2.025696,-7.539766 v -0.0058 c 0,-2.745427 -0.73134,-5.32253 -2.019891,-7.539767 C 43.108055,10.748614 41.198445,8.8390044 38.905172,7.5156274 36.81563,6.3025319 34.406851,5.5769962 31.835553,5.4957362 c 0.36567,-0.4527342 0.841621,-1.1086184 1.091206,-1.6774383 8.56132,0.795187 15.265269,7.9925001 15.265269,16.7627751 0,9.298464 -7.533962,16.832426 -16.832426,16.832426 -9.298465,0 -16.832427,-7.533962 -16.832427,-16.832426 0,-8.770275 6.703949,-15.9675881 15.26527,-16.7627751 0.250164,0.5682395 0.725535,1.2247041 1.085401,1.6774383 -2.565494,0.08126 -4.974272,0.8009914 -7.063815,2.0198912 -2.292693,1.3175728 -4.202303,3.2324056 -5.52568,5.5256786 -1.288551,2.217237 -2.019891,4.79434 -2.019891,7.539767 v 0.0058 c 0,2.745427 0.737144,5.322529 2.025696,7.539766 1.317572,2.292693 3.232406,4.202303 5.525679,5.519875 2.217237,1.294356 4.79434,2.025696 7.539767,2.025696 z"
     id="path894"
     inkscape:connector-curvature="0"
     style="fill:#e6e9ed;stroke-width:0.58042848" />
  <path
     d="m 23.814031,7.5156274 4.643428,8.0389346 c -0.882251,0.510777 -1.619395,1.247921 -2.124368,2.130172 l -0.0058,-0.0058 -8.033131,-4.637624 h -0.0058 c 1.323368,-2.292696 3.232978,-4.2081098 5.525671,-5.5256826 z"
     id="path896"
     inkscape:connector-curvature="0"
     style="fill:#ed5565;stroke-width:0.58042848" />
  <path
     d="m 46.450743,20.586877 c 0,2.745427 -0.737144,5.322529 -2.025696,7.539766 l -8.038934,-4.643428 c 0.493364,-0.85323 0.777774,-1.839958 0.777774,-2.896338 z"
     id="path898"
     inkscape:connector-curvature="0"
     style="fill:#8cc152;stroke-width:0.58042848" />
  <path
     d="m 44.430852,13.041306 h -0.0058 l -8.038934,4.643428 C 35.88114,16.802483 35.143415,16.065339 34.261744,15.560366 l 4.643428,-8.0441581 c 2.292693,1.3227965 4.202303,3.2324061 5.52568,5.5250981 z"
     id="path900"
     inkscape:connector-curvature="0"
     style="fill:#ed5565;stroke-width:0.58042848" />
  <path
     d="m 16.274264,20.586877 h 9.281053 c 0,1.05638 0.28441,2.048913 0.783578,2.902143 h -0.0058 l -8.038939,4.637623 C 17.005604,25.909406 16.26846,23.332304 16.26846,20.586877 Z"
     id="path902"
     inkscape:connector-curvature="0"
     style="fill:#ffce54;stroke-width:0.58042848" />
  <path
     d="m 38.905172,7.5156274 -4.643428,8.0447386 c -0.85323,-0.499168 -1.845762,-0.783578 -2.902142,-0.783578 V 6.0703605 c 0,0 0.208954,-0.2321714 0.475951,-0.5746243 2.571298,0.08126 4.980077,0.8067957 7.069619,2.0198912 z"
     id="path904"
     inkscape:connector-curvature="0"
     style="fill:#8cc152;stroke-width:0.58042848" />
  <path
     d="m 36.386113,23.483215 8.038934,4.643428 c -1.317572,2.292693 -3.232406,4.202303 -5.525679,5.519875 l -4.637624,-8.038934 c 0.882252,-0.510777 1.613592,-1.242117 2.124369,-2.124369 z"
     id="path906"
     inkscape:connector-curvature="0"
     style="fill:#ed5565;stroke-width:0.58042848" />
  <path
     d="m 34.261744,25.607584 4.637624,8.038934 c -2.217237,1.294356 -4.794339,2.025696 -7.539766,2.025696 v -9.286856 c 1.05638,0 2.048912,-0.28441 2.902142,-0.777774 z"
     id="path908"
     inkscape:connector-curvature="0"
     style="fill:#ffce54;stroke-width:0.58042848" />
  <path
     d="m 46.450743,20.581073 v 0.0058 h -9.286856 v -0.0058 c 0,-1.05638 -0.28441,-2.043109 -0.777774,-2.896339 l 8.038934,-4.643428 h 0.0058 c 1.288551,2.217237 2.019891,4.79434 2.019891,7.539767 z"
     id="path910"
     inkscape:connector-curvature="0"
     style="fill:#ffce54;stroke-width:0.58042848" />
  <g
     id="g938"
     transform="matrix(0.58042851,0,0,0.58042851,12.785889,0.84650389)"
     style="fill:#e6e9ed">
    <path
       d="m 42,34 v 0.01 C 42,35.83 41.51,37.531 40.66,39 39.78,40.52 38.519,41.78 37,42.66 35.53,43.51 33.82,44 32,44 30.18,44 28.48,43.51 27.01,42.66 25.49,41.79 24.231,40.53 23.35,39.01 22.491,37.54 22,35.83 22,34.01 V 34 c 0,-1.82 0.49,-3.52 1.34,-4.99 0.87,-1.52 2.141,-2.79 3.66,-3.67 1.47,-0.85 3.18,-1.34 5,-1.34 1.82,0 3.53,0.49 5,1.35 1.52,0.87 2.79,2.141 3.66,3.66 C 41.51,30.48 42,32.18 42,34 Z"
       id="path912"
       inkscape:connector-curvature="0" />
    <path
       d="m 55.212,28.789 c -0.553,0 -1.005,-0.447 -1.005,-1 0,-0.553 0.442,-1 0.994,-1 h 0.011 c 0.552,0 1,0.447 1,1 0,0.553 -0.448,1 -1,1 z"
       id="path914"
       inkscape:connector-curvature="0" />
    <path
       d="m 8.847,41.211 c -0.553,0 -1.005,-0.447 -1.005,-1 0,-0.553 0.442,-1 0.994,-1 h 0.011 c 0.552,0 1,0.447 1,1 0,0.553 -0.449,1 -1,1 z"
       id="path916"
       inkscape:connector-curvature="0" />
    <path
       d="m 49.001,18.029 c -0.553,0 -1.005,-0.447 -1.005,-1 0,-0.553 0.442,-1 0.994,-1 h 0.011 c 0.552,0 1,0.447 1,1 0,0.553 -0.448,1 -1,1 z"
       id="path918"
       inkscape:connector-curvature="0" />
    <path
       d="m 15.059,51.971 c -0.553,0 -1.005,-0.447 -1.005,-1 0,-0.553 0.442,-1 0.994,-1 h 0.011 c 0.552,0 1,0.447 1,1 0,0.553 -0.449,1 -1,1 z"
       id="path920"
       inkscape:connector-curvature="0" />
    <path
       d="m 38.242,11.816 c -0.553,0 -1.005,-0.447 -1.005,-1 0,-0.553 0.442,-1 0.994,-1 h 0.011 c 0.552,0 1,0.447 1,1 0,0.553 -0.448,1 -1,1 z"
       id="path922"
       inkscape:connector-curvature="0" />
    <path
       d="m 25.817,58.182 c -0.553,0 -1.005,-0.447 -1.005,-1 0,-0.553 0.442,-1 0.994,-1 h 0.011 c 0.552,0 1,0.447 1,1 0,0.553 -0.448,1 -1,1 z"
       id="path924"
       inkscape:connector-curvature="0" />
    <path
       d="m 25.818,11.816 c -0.553,0 -1.005,-0.447 -1.005,-1 0,-0.553 0.442,-1 0.994,-1 h 0.011 c 0.552,0 1,0.447 1,1 0,0.553 -0.448,1 -1,1 z"
       id="path926"
       inkscape:connector-curvature="0" />
    <path
       d="m 38.241,58.182 c -0.553,0 -1.005,-0.447 -1.005,-1 0,-0.553 0.442,-1 0.994,-1 h 0.011 c 0.552,0 1,0.447 1,1 0,0.553 -0.448,1 -1,1 z"
       id="path928"
       inkscape:connector-curvature="0" />
    <path
       d="m 15.059,18.027 c -0.553,0 -1.005,-0.447 -1.005,-1 0,-0.553 0.442,-1 0.994,-1 h 0.011 c 0.552,0 1,0.447 1,1 0,0.553 -0.449,1 -1,1 z"
       id="path930"
       inkscape:connector-curvature="0" />
    <path
       d="m 49.001,51.971 c -0.553,0 -1.005,-0.447 -1.005,-1 0,-0.553 0.442,-1 0.994,-1 h 0.011 c 0.552,0 1,0.447 1,1 0,0.553 -0.448,1 -1,1 z"
       id="path932"
       inkscape:connector-curvature="0" />
    <path
       d="m 8.847,28.787 c -0.553,0 -1.005,-0.447 -1.005,-1 0,-0.553 0.442,-1 0.994,-1 h 0.011 c 0.552,0 1,0.447 1,1 0,0.553 -0.449,1 -1,1 z"
       id="path934"
       inkscape:connector-curvature="0" />
    <path
       d="m 55.213,41.211 c -0.553,0 -1.005,-0.447 -1.005,-1 0,-0.553 0.442,-1 0.994,-1 h 0.011 c 0.552,0 1,0.447 1,1 0,0.553 -0.448,1 -1,1 z"
       id="path936"
       inkscape:connector-curvature="0" />
  </g>
  <path
     d="m 34.260003,20.000644 h -5.802544 c -0.320977,0 -0.580428,-0.259451 -0.580428,-0.580428 0,-0.320977 0.259451,-0.580429 0.580428,-0.580429 h 5.802544 c 0.320977,0 0.580428,0.259452 0.580428,0.580429 0,0.320977 -0.259451,0.580428 -0.580428,0.580428 z"
     id="path940"
     inkscape:connector-curvature="0"
     style="fill:#ccd1d9;stroke-width:0.58042848" />
  <path
     d="m 34.260003,21.74193 h -5.802544 c -0.320977,0 -0.580428,-0.259452 -0.580428,-0.580429 0,-0.320977 0.259451,-0.580428 0.580428,-0.580428 h 5.802544 c 0.320977,0 0.580428,0.259451 0.580428,0.580428 0,0.320977 -0.259451,0.580429 -0.580428,0.580429 z"
     id="path942"
     inkscape:connector-curvature="0"
     style="fill:#ccd1d9;stroke-width:0.58042848" />
  <path
     d="m 32.520459,23.483215 h -2.323456 c -0.320977,0 -0.580428,-0.259451 -0.580428,-0.580428 0,-0.320977 0.259451,-0.580429 0.580428,-0.580429 h 2.323456 c 0.320977,0 0.580428,0.259452 0.580428,0.580429 0,0.320977 -0.259451,0.580428 -0.580428,0.580428 z"
     id="path944"
     inkscape:connector-curvature="0"
     style="fill:#ccd1d9;stroke-width:0.58042848" />
  <path
     sodipodi:type="inkscape:offset"
     inkscape:radius="0.99062604"
     inkscape:original="M 24.904297 39.679688 A 1.5542125 1.5542125 0 0 0 23.429688 40.935547 C 23.359558 41.296265 23.318939 41.495632 23.269531 41.742188 L 23.265625 41.742188 C 22.930442 41.595182 22.445455 41.31637 21.859375 40.904297 A 1.5542125 1.5542125 0 0 0 19.519531 41.607422 L 19.169922 42.496094 A 1.5542125 1.5542125 0 0 0 19.6875 44.310547 C 19.752247 44.358784 19.812028 44.404195 19.875 44.451172 C 20.047141 46.100043 20.32474 47.77704 20.75 49.490234 C 21.142296 51.0664 21.457255 52.136223 21.921875 52.978516 A 1.5542125 1.5542125 0 0 0 23.601562 53.75 C 24.441508 53.574168 25.055364 53.507813 25.091797 53.507812 A 1.5542125 1.5542125 0 0 0 25.519531 53.445312 A 1.5542125 1.5542125 0 0 0 27.134766 53.783203 C 27.852602 53.517327 28.370412 53.433594 28.474609 53.433594 C 28.537597 53.433594 28.581436 53.456851 28.640625 53.460938 A 1.5542125 1.5542125 0 0 0 30.673828 54.025391 C 31.391406 53.655186 32.052163 53.496094 32.726562 53.496094 C 32.856927 53.496094 32.946007 53.501145 32.916016 53.498047 A 1.5542125 1.5542125 0 0 0 34.085938 53.134766 C 34.521444 53.630248 35.197519 54.046875 35.882812 54.046875 C 36.056419 54.046875 36.134033 53.903852 36.291016 53.869141 C 36.301626 53.878205 36.316889 53.891942 36.335938 53.908203 C 36.41234 53.960129 36.781101 54.210873 36.78125 54.210938 C 36.781415 54.211008 37.290812 54.332018 37.291016 54.332031 C 37.291422 54.332058 37.919362 54.244341 37.919922 54.244141 C 37.920482 54.24394 38.133171 54.150475 38.195312 54.113281 C 38.257455 54.076087 38.299931 54.047097 38.333984 54.021484 C 38.470197 53.919035 38.497913 53.878325 38.53125 53.84375 C 38.597924 53.7746 38.623086 53.744181 38.654297 53.707031 C 38.663954 53.695543 38.673926 53.68909 38.683594 53.677734 A 1.5542125 1.5542125 0 0 0 38.707031 53.705078 C 38.708046 53.7061 39.350181 54.095273 39.351562 54.095703 C 39.352255 54.095918 39.579582 54.151215 39.681641 54.160156 C 39.7837 54.169098 39.874635 54.167555 39.957031 54.160156 C 40.286617 54.130559 40.456543 54.037331 40.578125 53.970703 C 40.810288 53.843475 40.88171 53.760381 40.953125 53.6875 C 40.989143 53.652784 40.934293 53.686377 40.958984 53.666016 A 1.5542125 1.5542125 0 0 0 40.970703 53.673828 A 1.5542125 1.5542125 0 0 0 42.824219 53.517578 C 43.284171 53.811515 43.769805 54.121094 44.318359 54.121094 C 45.192325 54.121094 46.149885 53.846714 46.798828 53.138672 A 1.5542125 1.5542125 0 0 0 46.800781 53.134766 C 46.827571 53.105331 46.822575 53.068695 46.847656 53.039062 C 47.374396 53.454268 48.006656 53.746094 48.615234 53.746094 C 48.887075 53.746094 48.878788 53.732628 49.066406 53.714844 A 1.5542125 1.5542125 0 0 0 49.068359 53.714844 C 49.749758 53.649373 50.352198 53.304304 50.916016 52.925781 C 51.431027 53.469361 52.132018 53.894531 52.830078 53.894531 C 53.085354 53.894531 53.306685 53.842031 53.533203 53.794922 A 1.5542125 1.5542125 0 0 0 55.783203 53.621094 C 55.803073 53.596464 55.879591 53.517061 56.064453 53.419922 C 56.073352 53.415246 56.06395 53.420169 56.072266 53.416016 A 1.5542125 1.5542125 0 0 0 58.238281 51.912109 L 58.154297 50.232422 A 1.5542125 1.5542125 0 0 0 57.513672 49.052734 C 57.560867 48.453451 57.65625 47.946728 57.65625 47.244141 C 57.65625 47.064305 57.652644 46.836645 57.646484 46.542969 C 57.645665 46.503935 57.645191 46.494975 57.644531 46.458984 A 1.5542125 1.5542125 0 0 0 57.923828 46.066406 C 58.140419 45.630136 58.093079 45.51614 58.105469 45.375 C 58.117859 45.23386 58.121094 45.115025 58.121094 44.982422 C 58.121094 44.648908 58.097535 44.315943 58.050781 43.986328 A 1.5542125 1.5542125 0 0 0 55.587891 42.955078 C 55.509925 43.012717 54.909377 43.318134 53.986328 43.601562 A 1.5542125 1.5542125 0 0 0 53.34375 43.990234 C 53.310422 43.988735 53.293464 43.955078 53.259766 43.955078 C 52.865041 43.955078 52.540561 44.199 52.191406 44.380859 C 52.192817 44.318219 52.192819 44.295418 52.195312 44.207031 L 52.195312 44.193359 C 52.203463 43.976946 52.208984 43.806553 52.208984 43.666016 C 52.208984 43.325062 52.203169 43.034426 52.085938 42.636719 A 1.5542125 1.5542125 0 0 0 50.753906 41.53125 C 50.739621 41.507849 50.69152 41.427834 50.691406 41.427734 C 50.69097 41.427351 50.491184 41.274477 50.402344 41.226562 C 50.313503 41.178649 50.233622 41.146796 50.164062 41.123047 C 49.885824 41.02805 49.751927 41.037109 49.650391 41.037109 C 49.447317 41.037109 49.378 41.058951 49.308594 41.072266 A 1.5542125 1.5542125 0 0 0 49.216797 41.091797 C 49.044624 41.135836 48.694281 41.207286 48.220703 41.285156 C 47.745067 41.363366 47.339623 41.386719 47.525391 41.386719 C 47.155828 41.386719 46.498816 41.716653 46.265625 42.021484 C 46.234351 42.061089 46.212775 42.084368 46.195312 42.111328 C 46.113868 42.237066 46.074292 42.332432 46.044922 42.410156 C 45.986181 42.565605 45.972492 42.654252 45.960938 42.726562 C 45.942661 42.840931 45.941934 42.896016 45.941406 42.955078 A 1.5542125 1.5542125 0 0 0 45.222656 43.699219 C 45.008807 43.66296 44.821984 43.496094 44.611328 43.496094 C 44.109773 43.496094 43.608992 43.616469 43.132812 43.787109 C 43.098312 43.057094 43.087445 42.296466 42.994141 41.638672 A 1.5542125 1.5542125 0 0 0 41.117188 40.339844 C 40.139811 40.558157 39.425288 40.638298 39.490234 40.640625 A 1.5542125 1.5542125 0 0 0 37.808594 42.146484 C 37.80088 42.432851 37.805054 42.683213 37.826172 42.933594 A 1.5542125 1.5542125 0 0 0 36.474609 44.001953 C 36.446359 44.002809 36.318378 44.009766 36.306641 44.009766 C 36.027329 44.009766 35.659381 43.982006 35.222656 43.914062 A 1.5542125 1.5542125 0 0 0 34.341797 44.035156 C 33.889512 43.762736 33.463877 43.404297 32.958984 43.404297 C 32.88513 43.404297 32.823428 43.466019 32.75 43.472656 A 1.5542125 1.5542125 0 0 0 31.21875 43.146484 C 31.154762 42.53627 30.976197 41.900486 30.576172 41.445312 C 30.063012 40.860381 29.220117 40.480469 28.445312 40.480469 C 27.899803 40.480469 27.273866 40.630568 26.730469 41.058594 C 26.577896 40.84139 26.48462 40.712347 26.234375 40.349609 A 1.5542125 1.5542125 0 0 0 24.904297 39.679688 z M 5.3710938 40.457031 A 1.5542125 1.5542125 0 0 0 3.8828125 41.855469 C 3.8683359 42.001267 3.8632812 42.139724 3.8632812 42.273438 C 3.8632812 42.494107 3.8665844 42.679847 3.8984375 42.908203 C 3.9143641 43.022381 3.931623 43.144207 4.0039062 43.341797 C 4.0525727 43.474829 4.3082087 43.721252 4.5273438 43.945312 C 4.5262692 44.100949 4.5269052 44.220965 4.5234375 44.4375 A 1.5542125 1.5542125 0 0 0 4.5234375 44.445312 C 4.5193436 44.824641 4.5175781 45.108687 4.5175781 45.302734 C 4.5175781 47.311559 4.6828029 48.765134 4.875 50.164062 C 4.7738752 50.251751 4.593492 50.247054 4.5214844 50.34375 A 1.5542125 1.5542125 0 0 0 4.21875 51.408203 L 4.3554688 52.953125 A 1.5542125 1.5542125 0 0 0 7.2070312 53.662109 C 7.2550533 53.651075 7.2929085 53.630859 7.5136719 53.630859 C 8.0160543 53.630859 8.5735981 53.714244 9.1953125 53.904297 L 9.1796875 53.898438 C 9.5286593 54.009428 10.199432 53.972178 10.619141 53.664062 C 10.680626 53.618925 10.65779 53.584966 10.707031 53.539062 C 11.087192 53.733548 11.492844 53.894531 11.880859 53.894531 C 12.136135 53.894531 12.357466 53.842031 12.583984 53.794922 A 1.5542125 1.5542125 0 0 0 14.833984 53.621094 C 14.857217 53.592296 14.930677 53.515874 15.113281 53.419922 C 15.12198 53.415351 15.112936 53.420085 15.121094 53.416016 A 1.5542125 1.5542125 0 0 0 17.289062 51.912109 L 17.205078 50.232422 A 1.5542125 1.5542125 0 0 0 16.564453 49.052734 C 16.611648 48.453451 16.707031 47.946728 16.707031 47.244141 C 16.707031 47.064305 16.703427 46.836647 16.697266 46.542969 C 16.696447 46.503935 16.695972 46.494976 16.695312 46.458984 A 1.5542125 1.5542125 0 0 0 16.974609 46.066406 C 17.191197 45.630144 17.143859 45.516141 17.15625 45.375 C 17.168641 45.233859 17.171875 45.115027 17.171875 44.982422 C 17.171875 44.648904 17.148315 44.315939 17.101562 43.986328 A 1.5542125 1.5542125 0 0 0 14.638672 42.955078 C 14.560705 43.012718 13.960158 43.318134 13.037109 43.601562 A 1.5542125 1.5542125 0 0 0 12.394531 43.990234 C 12.361203 43.988735 12.344245 43.955078 12.310547 43.955078 C 11.685411 43.955078 11.043228 44.241358 10.619141 44.630859 C 10.377869 44.852454 10.267398 45.130665 10.111328 45.388672 C 9.9544816 45.346634 9.8342647 45.212891 9.6816406 45.212891 C 9.4883567 45.212891 9.4190187 45.315513 9.265625 45.349609 C 9.3958703 44.350511 9.5370759 43.508293 9.6777344 42.931641 A 1.5542125 1.5542125 0 0 0 8.4511719 41.035156 C 7.561886 40.870464 6.8916944 40.741359 6.4511719 40.652344 C 6.2309106 40.607836 6.0653614 40.571913 5.9746094 40.550781 C 5.9410042 40.542956 5.9346869 40.542247 5.9296875 40.541016 A 1.5542125 1.5542125 0 0 0 5.3710938 40.457031 z M 46.634766 41.662109 C 46.542318 41.741536 46.304036 41.970703 46.277344 42.005859 L 46.634766 41.662109 z M 44.580078 45.919922 C 44.765112 46.045761 44.988281 46.487997 44.988281 46.632812 C 44.988281 47.02429 44.583168 47.465828 44.5 47.513672 C 44.408961 47.502681 44.189301 47.441644 44.044922 47.306641 C 43.897985 47.158754 43.794922 46.852314 43.794922 46.753906 C 43.794922 46.720888 43.825814 46.419389 44.080078 46.162109 C 44.288738 45.950975 44.474409 45.93576 44.580078 45.919922 z M 7.0273438 46.943359 C 7.025969 46.945633 7.0267608 46.948894 7.0253906 46.951172 C 7.0244493 46.952753 7.0224232 46.953495 7.0214844 46.955078 L 7.0273438 46.943359 z M 43.140625 48.248047 C 43.13914 48.249668 43.140152 48.252281 43.138672 48.253906 C 43.137655 48.255023 43.13578 48.25474 43.134766 48.255859 L 43.140625 48.248047 z M 12.400391 48.396484 C 12.58805 48.52765 13.081376 48.672563 12.955078 49.230469 C 12.955078 49.452345 12.935249 49.432424 12.919922 49.460938 C 12.887404 49.451403 12.903231 49.460708 12.84375 49.421875 C 12.719766 49.336574 12.414063 48.90504 12.414062 48.5625 C 12.414062 48.325366 12.525947 48.26453 12.392578 48.404297 L 12.400391 48.396484 z M 53.349609 48.396484 C 53.53727 48.527653 54.030591 48.67255 53.904297 49.230469 C 53.904297 49.452348 53.884467 49.432425 53.869141 49.460938 C 53.836622 49.451403 53.852452 49.460709 53.792969 49.421875 C 53.668985 49.336574 53.363281 48.90504 53.363281 48.5625 C 53.363281 48.325366 53.475165 48.26453 53.341797 48.404297 L 53.349609 48.396484 z M 43.982422 52.662109 C 44.154955 52.781099 44.234563 52.986377 44.435547 53.060547 L 44.105469 52.894531 C 44.058941 52.863292 44.036451 52.717958 43.982422 52.662109 z "
     xlink:href="#path1569"
     style="font-style:normal;font-weight:normal;font-size:8.26225662px;line-height:1.25;font-family:sans-serif;letter-spacing:0px;word-spacing:0px;fill:#000000;fill-opacity:1;stroke:none;stroke-width:0.20655641"
     id="path1571"
     inkscape:href="#path1569"
     d="m 24.871094,38.439453 c -0.954852,0.03126 -1.738368,0.726772 -2.132813,1.589844 -0.123025,-0.07947 -0.171663,-0.08927 -0.308593,-0.185547 -0.627703,-0.440948 -1.460664,-0.576231 -2.195313,-0.355469 -0.734649,0.220763 -1.356053,0.791946 -1.636719,1.50586 l -0.349609,0.888671 a 0.9907251,0.9907251 0 0 0 0,0.002 c -0.371946,0.94655 -0.03494,2.057296 0.701172,2.751953 0.178267,1.584942 0.430535,3.192865 0.839843,4.841797 a 0.9907251,0.9907251 0 0 0 0,0.002 c 0.396936,1.594807 0.721108,2.739425 1.265626,3.726562 0.521206,0.94636 1.692504,1.482977 2.75,1.261719 0.397063,-0.08312 0.74095,-0.139799 0.986328,-0.175781 0.122688,-0.01799 0.221556,-0.03131 0.287109,-0.03906 0.03278,-0.0039 0.05731,-0.0065 0.07031,-0.0078 0.01121,-0.0011 0.02888,0.0014 -0.04883,0.002 0.101137,-6.42e-4 0.198487,-0.0303 0.298829,-0.04297 0.641551,0.351067 1.391906,0.511686 2.080078,0.257813 0.317929,-0.117757 0.589341,-0.195468 0.78125,-0.240235 0.146514,-0.03418 0.185656,-0.03397 0.164062,-0.03711 0.770577,0.623707 1.813269,0.928751 2.703125,0.470703 a 0.9907251,0.9907251 0 0 0 0.002,0 c 0.600141,-0.309618 1.079051,-0.419922 1.597656,-0.419922 0.05239,0 0.09826,0.0011 0.13086,0.002 0.0163,4.1e-4 0.02017,0.0017 0.05469,0.002 0.0086,5.3e-5 0.01514,-4.4e-4 0.05078,-0.002 0.01782,-7.56e-4 0.118974,-0.01169 0.11914,-0.01172 0,0 -0.01002,-0.06384 -0.01172,-0.07422 0.02517,-2.18e-4 0.04517,-0.02051 0.07031,-0.02148 0.153193,-0.0059 0.277962,-0.09966 0.427734,-0.132812 0.08677,-0.0192 0.163676,-0.04822 0.248047,-0.07617 0.552544,0.474032 1.217458,0.865234 2.066406,0.865234 0.114026,0 0.142655,-0.04989 0.240235,-0.07617 0.01352,0.0092 0.03166,0.02161 0.04297,0.0293 0.01791,0.01218 0.03265,0.02228 0.04297,0.0293 0.01032,0.007 0.01563,0.0098 0.01563,0.0098 a 0.9907251,0.9907251 0 0 0 0.169922,0.09375 c 1.65e-4,7e-5 0.833781,0.197253 0.833985,0.197265 0.008,-0.001 1.024832,-0.142378 1.02539,-0.142578 a 0.9907251,0.9907251 0 0 0 0,-0.002 c 2.8e-4,-1e-4 0.123529,-0.05189 0.19336,-0.08398 0.06983,-0.03209 0.111196,-0.04232 0.255859,-0.128906 0.04065,-0.02433 0.07156,-0.04653 0.107422,-0.07031 0.08794,0.05327 0.245771,0.148337 0.246094,0.148438 a 0.9907251,0.9907251 0 0 0 0.002,0 c 3.46e-4,1.07e-4 0.128764,0.03466 0.21289,0.05273 0.08413,0.01807 0.160018,0.03835 0.324219,0.05273 0.162898,0.01427 0.314376,0.01211 0.449219,0 0.483947,-0.04346 0.888576,-0.240227 1.009766,-0.30664 0.09812,-0.05377 0.106341,-0.08326 0.1875,-0.142578 0.544035,0.11873 1.048914,0.06944 1.558593,-0.154297 0.418738,0.254492 0.828017,0.568359 1.517578,0.568359 0.862177,0 1.783697,-0.312441 2.589844,-0.890625 0.512886,0.288782 1.068364,0.515625 1.707031,0.515625 0.301295,0 0.40316,-0.02201 0.539063,-0.03516 h 0.0059 a 0.9907251,0.9907251 0 0 0 0.0039,0 c 0.660226,-0.06344 1.109736,-0.384171 1.591797,-0.658203 0.576238,0.461365 1.241895,0.841797 2.074219,0.841797 0.353078,0 0.611106,-0.06328 0.816406,-0.107422 0.891952,0.348339 1.859969,0.262119 2.580078,-0.371094 0.661241,0.119624 1.357038,0.05592 1.910157,-0.328125 0.705706,-0.489986 1.133792,-1.356739 1.091797,-2.214844 l -0.08398,-1.679687 a 0.9907251,0.9907251 0 0 0 0,-0.002 c -0.02329,-0.456808 -0.381457,-0.785442 -0.634765,-1.166016 0.04623,-0.508514 0.136718,-1.027594 0.136718,-1.771484 0,-0.132543 -0.0027,-0.318491 -0.0059,-0.496094 0.05379,-0.08231 0.126029,-0.152249 0.169922,-0.240235 0.272719,-0.549327 0.292146,-1.170999 0.28125,-1.046874 0.01531,-0.174431 0.01953,-0.329801 0.01953,-0.478516 0,-0.380165 -0.02679,-0.759121 -0.08008,-1.134766 -0.123166,-0.867809 -0.728617,-1.651706 -1.537109,-1.990234 -0.808493,-0.338529 -1.791349,-0.220369 -2.496094,0.300781 0.13307,-0.09838 0.05112,-0.03264 -0.0098,-0.002 -0.06088,0.03068 -0.155891,0.07641 -0.277343,0.128906 -0.242905,0.105 -0.59192,0.239039 -1.015626,0.369141 a 0.9907251,0.9907251 0 0 0 -0.002,0 c -0.216318,0.06691 -0.385142,0.226105 -0.576171,0.347656 -0.02213,-0.216314 -0.0053,-0.390995 -0.08008,-0.644531 a 0.9907251,0.9907251 0 0 0 -0.002,-0.002 c -0.222954,-0.754113 -0.864942,-1.276271 -1.595703,-1.558594 l -0.09375,-0.113281 c -2.18e-4,-1.92e-4 -0.112603,-0.0878 -0.185547,-0.140625 -0.07294,-0.05283 -0.128341,-0.10187 -0.287109,-0.1875 -0.14575,-0.0786 -0.282255,-0.13359 -0.388672,-0.169922 -0.388431,-0.132619 -0.791371,-0.138672 -0.833984,-0.138672 -0.268999,0 -0.517223,0.05021 -0.519532,0.05078 -0.05041,0.0091 -0.09867,0.01908 -0.148437,0.03125 a 0.9907251,0.9907251 0 0 0 -0.01172,0.0039 c -0.108825,0.02784 -0.455126,0.100962 -0.910156,0.175782 -0.208926,0.03435 -0.411136,0.05686 -0.546875,0.07227 -0.06787,0.0077 -0.07558,0.0039 -0.197266,0.02539 -0.01521,0.0027 -0.03276,0.005 -0.06836,0.01367 -0.0178,0.0044 -0.04087,0.0099 -0.07617,0.02148 -0.0353,0.01157 -0.175506,0.07797 -0.175781,0.07813 -3.3e-5,1.8e-5 -0.0299,0.02263 -0.04687,0.03516 -0.161648,0.05163 -0.358978,0.06447 -0.507813,0.138671 a 0.9907251,0.9907251 0 0 0 -0.453125,0.216797 c -0.08433,0.07245 -0.161803,0.147375 -0.24414,0.226563 -0.04117,0.03959 -0.07994,0.07782 -0.115235,0.113281 -0.0353,0.03547 -0.01814,-0.0051 -0.140625,0.15625 a 0.9907251,0.9907251 0 0 0 -0.0078,0.01172 0.9907251,0.9907251 0 0 0 -0.0059,0.0098 c -0.01481,0.01649 -0.04197,0.03745 -0.111328,0.144532 -0.126089,0.194664 -0.205468,0.385939 -0.24414,0.488281 -0.08477,0.224336 -0.125833,0.441636 -0.136719,0.509765 -0.0019,0.0116 -3.01e-4,0.01582 -0.002,0.02734 -0.120622,-0.03919 -0.181248,-0.0918 -0.369141,-0.0918 -0.204905,0 -0.367956,0.08308 -0.5625,0.109375 -0.01932,-0.37614 -0.02109,-0.740698 -0.07422,-1.115234 -0.196378,-1.385195 -1.706729,-2.431323 -3.072265,-2.126953 a 0.9907251,0.9907251 0 0 0 -0.002,0 c -0.463734,0.103582 -0.866389,0.175136 -1.146485,0.220703 -0.140048,0.02278 -0.247192,0.03893 -0.324218,0.05078 -0.03851,0.0059 -0.06327,0.009 -0.109376,0.01758 -0.01152,0.0022 -0.02574,0.0045 -0.04883,0.0098 -0.02308,0.0053 -0.153344,0.04844 -0.154296,0.04883 -2.39e-4,9.6e-5 -0.132666,0.06437 -0.132813,0.06445 -7.3e-5,4.3e-5 -0.11909,0.08394 -0.119141,0.08398 -1.4e-5,1.2e-5 -0.03213,0.03278 -0.05469,0.05664 -1.043484,0.296959 -1.961717,1.09427 -1.992188,2.19336 -0.0019,0.06907 0.0044,0.13191 0.0039,0.199218 -0.32397,0.172324 -0.56558,0.388071 -0.792969,0.675782 -0.193756,-0.01047 -0.377807,-0.01558 -0.654297,-0.05859 -0.25269,-0.03909 -0.497107,0.06391 -0.75,0.101562 -0.360295,-0.253756 -0.847784,-0.623047 -1.666016,-0.623047 -0.07457,0 -0.06794,0.02167 -0.126953,0.03125 -0.314819,-0.15931 -0.622218,-0.261661 -0.974609,-0.285156 -0.132059,-0.469303 -0.169778,-0.948663 -0.53711,-1.367187 -0.727575,-0.829335 -1.77637,-1.302735 -2.875,-1.302735 -0.404439,0 -0.852225,0.282615 -1.294921,0.439454 -0.03919,-0.05637 -0.05104,-0.06934 -0.101563,-0.142579 -0.481825,-0.697403 -1.330537,-1.12567 -2.177734,-1.097656 z M 5.3339844,39.216797 c -1.2152749,0.04555 -2.3164642,1.080925 -2.4375,2.291015 -0.018329,0.1846 -0.023437,0.356946 -0.023437,0.515626 0,0.230554 0.00421,0.479614 0.044922,0.771484 0.016135,0.11567 0.05631,0.363528 0.15625,0.636719 0.1487997,0.40675 0.2742691,0.464324 0.3964843,0.597656 0.021944,0.02394 0.0406,0.0413 0.0625,0.06445 -3.552e-4,0.02927 5.392e-4,0.04446 0,0.07813 a 0.9907251,0.9907251 0 0 0 0,0.01367 c -1.07e-5,0.0043 -1.07e-5,0.0075 0,0.01172 -0.004,0.373901 -0.00586,0.658116 -0.00586,0.855468 0,1.803417 0.1573547,3.10164 0.3203124,4.367188 -0.050246,0.04782 -0.068286,0.014 -0.1191406,0.08203 -0.3693452,0.494938 -0.5497038,1.12696 -0.4960937,1.742188 a 0.9907251,0.9907251 0 0 0 0,0.002 l 0.1367187,1.544922 c 0.092971,1.04647 0.9003702,1.990649 1.9199219,2.24414 0.7981288,0.198439 1.6046244,-0.129374 2.2246094,-0.664062 0.3927669,0 0.8517374,0.06514 1.3925781,0.230468 a 0.9907251,0.9907251 0 0 0 0.4648438,0.02539 c 0.2061438,0.01805 0.4107046,0.07301 0.6289062,0.04492 0.278022,-0.03579 0.571284,-0.184718 0.861328,-0.328125 0.319906,0.125817 0.604117,0.291016 1.019531,0.291016 0.353078,0 0.611107,-0.06328 0.816407,-0.107422 0.89112,0.348014 1.857975,0.262609 2.578125,-0.369141 0.661106,0.119792 1.358911,0.05563 1.912109,-0.328125 0.706593,-0.49016 1.134308,-1.357888 1.091797,-2.216797 l -0.08398,-1.679687 a 0.9907251,0.9907251 0 0 0 0,-0.002 c -0.02329,-0.456808 -0.381457,-0.785442 -0.634765,-1.166016 0.04623,-0.508514 0.136719,-1.027594 0.136719,-1.771484 0,-0.132538 -0.0027,-0.318488 -0.0059,-0.496094 0.05379,-0.08231 0.126029,-0.152249 0.169922,-0.240235 0.272719,-0.549322 0.292147,-1.170993 0.28125,-1.046874 0.01531,-0.174438 0.01953,-0.329805 0.01953,-0.478516 0,-0.380171 -0.0268,-0.759127 -0.08008,-1.134766 -0.123166,-0.867809 -0.728616,-1.651706 -1.537109,-1.990234 -0.808493,-0.338529 -1.791349,-0.220369 -2.496094,0.300781 0.133069,-0.09838 0.05112,-0.03264 -0.0098,-0.002 -0.06088,0.03068 -0.155891,0.07641 -0.277343,0.128906 -0.242905,0.105 -0.591919,0.239039 -1.015625,0.369141 a 0.9907251,0.9907251 0 0 0 -0.002,0 c -0.207597,0.06421 -0.368174,0.219293 -0.552735,0.333984 -0.601156,0.02221 -1.130289,0.221949 -1.607422,0.50586 0.0182,-0.08449 0.03901,-0.25584 0.05664,-0.328125 0.327015,-1.340591 -0.652996,-2.853875 -2.0097656,-3.105469 -0.8857641,-0.16404 -1.5527731,-0.291694 -1.984375,-0.378906 -0.2132852,-0.0431 -0.3741673,-0.07868 -0.4472656,-0.0957 -0.04744,-0.01105 -0.1305768,-0.02984 -0.033203,-0.0059 l 0.085937,0.02344 C 5.9588538,39.252476 5.6477428,39.206411 5.3378906,39.216797 a 0.9907251,0.9907251 0 0 0 -0.00391,0 z M 12.439453,42.75 c 0.308261,0.01387 0.489784,0.167305 0.470703,0.154297 -0.01522,-0.01038 -0.241606,-0.104621 -0.478515,-0.150391 z m 40.949219,0 c 0.308261,0.01387 0.489784,0.167305 0.470703,0.154297 -0.01522,-0.01038 -0.241606,-0.104621 -0.478516,-0.150391 z m -8.769531,3.529297 c 0.199883,-0.275409 0.216719,1.066244 0.158203,0.335937 -0.03755,0.0051 -0.207876,0.0587 -0.05078,0.03516 l -0.703124,-0.16211 c -0.06031,-0.04102 0.001,0.01093 -0.01172,0.002 -0.0055,-0.013 -0.007,-0.01364 -0.0098,-0.08203 0.008,-0.0046 -0.005,0.0012 0.0039,-0.0039 z M 6.0585938,46.490234 c -0.040754,0.22889 0.00233,0.0079 0,0 z m 34.8476562,5.94336 c -3e-5,10e-7 0.02933,0.003 0.03906,0.0039 -0.04136,7.5e-4 -0.06241,-2.24e-4 -0.0957,0.002 0.02828,-0.0031 0.05674,-0.0059 0.05664,-0.0059 z m 0.236328,0.01953 c 0.01107,0.0013 0.05013,0.01042 0.05859,0.01367 -0.02739,-0.0058 -0.03055,-0.0077 -0.05859,-0.01367 z m 0.216797,0.07617 c 0.02409,0.0091 0.113932,0.0638 0.134766,0.08203 -0.06619,-0.04056 -0.09304,-0.05647 -0.134766,-0.08203 z m 0.339844,0.259765 c 0.01497,0.01302 0.08268,0.126303 0.101562,0.169922 -0.04999,-0.08425 -0.07166,-0.119549 -0.101562,-0.169922 z m -26.582031,0.378907 c 0,0 0.362069,0.816785 0.40039,0.86914 0.02195,-0.0247 0.06503,-0.01718 0.08594,-0.04297 -0.07291,0.08682 -0.113302,0.09688 -0.0293,0.05273 -0.0011,5.74e-4 -0.0069,0.0035 -0.01172,0.0059 l -0.03711,0.002 c 3.82e-4,3.07e-4 0.0056,0.01377 0.0059,0.01367 -5.62e-4,2.73e-4 -0.0039,0.002 -0.0039,0.002 0,0 -0.0076,-0.01508 -0.0078,-0.01562 h -0.03711 c 0.0081,-0.0088 0.02325,-0.0067 0.03125,-0.01563 -0.02625,-0.05789 -0.396485,-0.871093 -0.396484,-0.871093 z m 26.810546,0.08398 c 6.51e-4,0.002 0.002,0.02799 0.002,0.03906 -9.72e-4,-0.01682 -0.0012,-0.02569 -0.002,-0.03906 z m -30.34375,0.474609 c -0.06706,0.0957 -0.218099,0.289714 -0.226562,0.291016 0.0915,-0.118578 0.211572,-0.254387 0.226562,-0.291016 z m 44.96875,0.267579 c -0.06262,0.07538 -0.0332,0.04882 -0.01758,0.03516 -1.32e-4,-2.25e-4 -0.01133,-0.01887 -0.01172,-0.01953 0.0073,-0.0088 0.02208,-0.0067 0.0293,-0.01563 z m -0.0918,0.04492 c 3.62e-4,5.41e-4 0.0096,0.01537 0.0098,0.01563 h -0.04102 c 0.0081,-0.0088 0.02324,-0.0067 0.03125,-0.01563 z" />
  <path
     sodipodi:type="inkscape:offset"
     inkscape:radius="1.5540571"
     inkscape:original="M 24.955078 41.232422 C 24.841465 41.816804 24.754223 42.254594 24.693359 42.548828 L 25.101562 42.892578 C 25.274011 43.043782 25.402996 43.180137 25.490234 43.302734 C 24.812614 45.023189 24.474609 47.131999 24.474609 49.628906 C 24.474609 50.111124 24.483618 50.484552 24.503906 50.746094 C 24.51405 50.807393 24.499485 50.837891 24.460938 50.837891 C 24.414275 50.837891 24.381616 50.814484 24.361328 50.769531 C 23.994115 50.156543 23.712343 49.296919 23.517578 48.189453 C 23.34513 47.208671 23.259766 46.15329 23.259766 45.025391 C 23.259766 44.796542 23.261567 44.599191 23.265625 44.431641 C 23.265625 44.382602 23.305642 44.357422 23.384766 44.357422 C 23.457803 44.357422 23.586863 44.386147 23.771484 44.443359 C 23.990595 44.512831 24.125061 44.552374 24.175781 44.560547 C 24.192012 44.486988 24.242915 44.31641 24.328125 44.050781 C 24.388989 43.858711 24.419922 43.731401 24.419922 43.666016 C 24.419922 43.616977 24.407082 43.591797 24.384766 43.591797 C 23.78424 43.550931 23.206358 43.409078 22.648438 43.167969 C 22.171669 42.959553 21.610003 42.629393 20.964844 42.175781 L 20.615234 43.064453 C 20.763337 43.174791 20.910567 43.284193 21.056641 43.394531 C 21.245319 43.570255 21.348853 43.771331 21.369141 43.996094 C 21.527387 45.659336 21.823649 47.366173 22.257812 49.115234 C 22.637199 50.639533 22.978883 51.676826 23.283203 52.228516 C 24.161675 52.044619 24.76516 51.953125 25.091797 51.953125 C 25.079624 51.601678 25.074219 51.26602 25.074219 50.947266 C 25.074219 48.180643 25.583028 45.725539 26.603516 43.580078 C 26.62989 43.526952 26.626287 43.478366 26.591797 43.4375 C 26.334139 43.143265 26.081498 42.827468 25.833984 42.488281 C 25.681824 42.279865 25.389242 41.861757 24.955078 41.232422 z M 41.455078 41.857422 C 40.430533 42.086271 39.76706 42.199219 39.466797 42.199219 C 39.407962 42.199219 39.373501 42.195673 39.361328 42.1875 C 39.347127 42.71467 39.377984 43.048556 39.455078 43.1875 C 39.62144 43.21202 39.739614 43.247836 39.808594 43.296875 C 39.897861 43.366347 39.95417 43.484794 39.978516 43.652344 C 40.132705 44.767983 40.210938 45.932767 40.210938 47.146484 C 40.210937 48.535925 40.076396 50.318121 39.808594 52.492188 C 39.800479 52.557573 39.800403 52.597115 39.810547 52.609375 C 39.818662 52.617548 39.838784 52.606731 39.867188 52.578125 C 40.260775 52.193985 40.633241 52.001953 40.988281 52.001953 C 41.254054 52.001953 41.523138 52.1204 41.792969 52.357422 L 41.792969 50.720703 C 41.709788 50.647144 41.609858 50.609375 41.492188 50.609375 C 41.344085 50.609375 41.196855 50.681188 41.050781 50.824219 C 41.458571 49.197755 41.662109 47.290022 41.662109 45.099609 C 41.662109 43.910411 41.593037 42.830031 41.455078 41.857422 z M 5.4296875 42.009766 C 5.4215723 42.091497 5.4179688 42.179446 5.4179688 42.273438 C 5.4179687 42.637144 5.4452223 42.832722 5.5 42.861328 C 5.6399874 42.914454 5.7435964 42.950451 5.8105469 42.966797 C 5.9951679 43.036269 6.0859375 43.244437 6.0859375 43.591797 C 6.0859375 43.79204 6.0842114 44.082838 6.078125 44.462891 C 6.0740674 44.838857 6.0722656 45.118838 6.0722656 45.302734 C 6.0722656 47.775122 6.2122127 49.715126 6.4921875 51.125 C 6.3785745 51.075961 6.2766916 51.050781 6.1894531 51.050781 C 6.0170049 51.050781 5.8771335 51.124367 5.7675781 51.271484 L 5.9042969 52.816406 C 6.0848603 52.321929 6.6209986 52.076172 7.5136719 52.076172 C 8.1892632 52.076172 8.9017624 52.18912 9.6503906 52.417969 C 9.6889379 52.430229 9.7161915 52.410548 9.7324219 52.357422 C 9.7953148 52.149006 9.8589064 51.942611 9.9238281 51.738281 C 10.041499 51.337795 10.134221 50.925005 10.201172 50.5 C 10.294497 49.911531 10.341797 49.308482 10.341797 48.691406 C 10.341797 47.408217 10.121891 46.767578 9.6816406 46.767578 C 9.5274516 46.767578 9.3292425 46.842937 9.0898438 46.994141 C 8.7875521 47.182124 8.5440717 47.433379 8.3574219 47.748047 C 8.1646856 48.066801 8.0683594 48.393415 8.0683594 48.728516 C 8.0683594 48.932845 8.1064236 49.124877 8.1855469 49.304688 C 8.3640815 49.713347 8.6041097 49.917969 8.9023438 49.917969 C 9.228981 49.917969 9.547015 49.700757 9.8574219 49.267578 C 9.8675659 49.251232 9.8765747 49.244141 9.8867188 49.244141 C 9.9313524 49.244141 9.9550781 49.335635 9.9550781 49.519531 C 9.9550781 49.870978 9.8605537 50.186775 9.671875 50.46875 C 9.414217 50.856976 9.0307139 51.050781 8.5214844 51.050781 C 7.8195186 51.050781 7.46875 50.126616 7.46875 48.275391 C 7.46875 47.503025 7.5451054 46.517684 7.6972656 45.320312 C 7.8392818 44.188327 7.9955205 43.26948 8.1679688 42.5625 C 6.3805934 42.231486 5.4682348 42.046545 5.4296875 42.009766 z M 28.445312 42.035156 C 27.743347 42.035156 27.392578 42.340136 27.392578 42.953125 C 27.392578 43.42717 27.497913 43.791553 27.710938 44.044922 C 27.895559 44.261511 28.131832 44.369141 28.419922 44.369141 C 28.7283 44.369141 29.020958 44.284918 29.296875 44.113281 C 29.609311 43.921211 29.765625 43.687864 29.765625 43.414062 C 29.765625 43.054442 29.647526 42.740418 29.410156 42.470703 C 29.156556 42.180555 28.834843 42.035156 28.445312 42.035156 z M 49.601562 42.597656 C 49.345933 42.663042 48.969713 42.736628 48.472656 42.818359 C 47.9756 42.900091 47.659292 42.941406 47.525391 42.941406 C 47.515247 42.941406 47.50804 42.944952 47.501953 42.953125 C 47.495867 42.957212 47.492188 42.978846 47.492188 43.015625 C 47.492188 43.027885 47.515838 43.232507 47.5625 43.628906 C 47.609162 44.041652 47.636492 44.413127 47.642578 44.744141 C 47.228702 44.703275 46.892424 44.570466 46.634766 44.345703 C 46.579988 44.68489 46.552734 45.128178 46.552734 45.675781 C 46.552734 45.867851 46.554536 45.980979 46.558594 46.013672 C 46.566709 46.074971 46.583076 46.09997 46.607422 46.091797 C 47.021298 45.903814 47.361104 45.797957 47.628906 45.773438 C 47.318499 47.26913 47.164062 48.547042 47.164062 49.605469 C 47.164062 50.602597 47.30033 51.300686 47.574219 51.701172 C 47.797387 52.028099 48.144552 52.191406 48.615234 52.191406 C 48.645666 52.191406 48.747474 52.184315 48.919922 52.167969 C 50.110829 52.053544 50.86327 51.425315 51.177734 50.285156 C 51.281203 49.905103 51.333984 49.587533 51.333984 49.330078 C 51.333984 48.745696 51.059496 48.334679 50.511719 48.097656 C 50.258118 47.991405 50.032731 47.9375 49.835938 47.9375 C 49.570164 47.9375 49.359267 48.023676 49.205078 48.195312 C 49.061033 48.358776 48.990234 48.568717 48.990234 48.826172 C 48.990234 49.381948 49.1247 49.821691 49.394531 50.144531 C 49.68465 50.406073 49.889991 50.565835 50.011719 50.623047 C 50.032007 50.647566 50.042969 50.679837 50.042969 50.720703 C 50.042969 50.855561 49.933879 51.017095 49.716797 51.205078 C 49.501744 51.393061 49.309091 51.486328 49.138672 51.486328 C 48.814063 51.486328 48.652344 50.759514 48.652344 49.304688 C 48.652344 48.61814 48.686804 47.871465 48.757812 47.066406 C 48.818677 46.34308 48.869656 45.951924 48.908203 45.890625 C 49.492498 45.890625 49.810532 45.894171 49.863281 45.902344 C 49.96675 45.91869 50.059397 46.119767 50.142578 46.503906 C 50.229817 46.916652 50.286201 47.139182 50.310547 47.171875 C 50.326777 47.204568 50.354031 47.220703 50.392578 47.220703 C 50.4575 47.220703 50.557505 47.16148 50.691406 47.042969 C 50.776616 46.965324 50.862056 46.884466 50.947266 46.802734 C 50.8722 46.492153 50.801325 46.106316 50.734375 45.644531 C 50.667425 45.17866 50.632812 44.830592 50.632812 44.597656 C 50.632813 44.511838 50.636492 44.36094 50.642578 44.148438 C 50.650693 43.935935 50.654297 43.776354 50.654297 43.666016 C 50.654297 43.404474 50.63425 43.206943 50.595703 43.076172 C 50.467889 43.096605 50.218927 43.312044 49.847656 43.720703 C 49.997788 43.945466 50.072266 44.194948 50.072266 44.46875 C 50.072266 44.562742 50.065059 44.654236 50.048828 44.744141 C 50.034627 44.829959 49.769298 44.876592 49.251953 44.884766 L 49.044922 44.884766 C 49.134189 44.455674 49.266854 43.95139 49.443359 43.371094 C 49.593491 42.876616 49.667969 42.618089 49.667969 42.597656 C 49.66594 42.589483 49.644167 42.589483 49.601562 42.597656 z M 15.5625 44.205078 C 15.181085 44.487053 14.492312 44.781396 13.494141 45.087891 C 13.573264 45.337173 13.644138 45.660241 13.707031 46.056641 C 13.763838 46.42852 13.792969 46.715592 13.792969 46.919922 C 13.312142 45.980006 12.817748 45.509766 12.310547 45.509766 C 11.841893 45.509766 11.456513 45.863332 11.15625 46.570312 C 10.906707 47.166955 10.744988 47.922494 10.669922 48.837891 C 10.633403 49.299675 10.615234 49.723282 10.615234 50.107422 C 10.615234 50.843008 10.706155 51.388607 10.886719 51.744141 C 11.08757 52.14054 11.418292 52.339844 11.880859 52.339844 C 12.037077 52.339844 12.227928 52.311119 12.453125 52.253906 C 12.925836 52.131309 13.332989 51.786606 13.673828 51.222656 C 13.692087 51.19405 13.704775 51.177915 13.712891 51.173828 C 13.725063 51.169742 13.730469 51.202012 13.730469 51.271484 C 13.730469 51.500333 13.696008 51.957984 13.625 52.644531 C 13.809621 52.415682 14.063988 52.216559 14.390625 52.044922 C 14.717262 51.873285 15.011798 51.787109 15.271484 51.787109 C 15.486537 51.787109 15.640974 51.855377 15.736328 51.990234 L 15.652344 50.310547 C 15.569163 50.265594 15.478242 50.242188 15.380859 50.242188 C 15.196238 50.242188 15.036245 50.32659 14.902344 50.494141 C 15.068706 49.640043 15.152344 48.555936 15.152344 47.244141 C 15.152344 47.08885 15.148665 46.86632 15.142578 46.576172 C 15.136492 46.286024 15.134766 46.074311 15.134766 45.939453 L 15.134766 45.927734 C 15.134766 45.764271 15.283797 45.57933 15.582031 45.375 C 15.606377 45.325961 15.617188 45.194925 15.617188 44.982422 C 15.617188 44.72088 15.599018 44.462533 15.5625 44.205078 z M 56.511719 44.205078 C 56.130304 44.487053 55.44153 44.781396 54.443359 45.087891 C 54.522483 45.337173 54.593357 45.660241 54.65625 46.056641 C 54.713056 46.42852 54.742188 46.715592 54.742188 46.919922 C 54.261361 45.980006 53.766966 45.509766 53.259766 45.509766 C 52.791112 45.509766 52.405732 45.863332 52.105469 46.570312 C 51.855926 47.166955 51.694206 47.922494 51.619141 48.837891 C 51.582622 49.299675 51.564453 49.723282 51.564453 50.107422 C 51.564453 50.843008 51.655374 51.388607 51.835938 51.744141 C 52.036789 52.14054 52.367511 52.339844 52.830078 52.339844 C 52.986296 52.339844 53.177147 52.311119 53.402344 52.253906 C 53.875055 52.131309 54.282208 51.786606 54.623047 51.222656 C 54.641306 51.19405 54.653994 51.177915 54.662109 51.173828 C 54.674282 51.169742 54.679688 51.202012 54.679688 51.271484 C 54.679687 51.500333 54.645227 51.957984 54.574219 52.644531 C 54.75884 52.415682 55.01516 52.216559 55.341797 52.044922 C 55.668434 51.873285 55.961016 51.787109 56.220703 51.787109 C 56.435756 51.787109 56.590193 51.855377 56.685547 51.990234 L 56.601562 50.310547 C 56.518382 50.265594 56.427461 50.242188 56.330078 50.242188 C 56.145457 50.242188 55.985463 50.32659 55.851562 50.494141 C 56.017924 49.640043 56.101562 48.555936 56.101562 47.244141 C 56.101562 47.08885 56.097883 46.86632 56.091797 46.576172 C 56.08571 46.286024 56.083984 46.074311 56.083984 45.939453 L 56.083984 45.927734 C 56.083984 45.764271 56.233016 45.57933 56.53125 45.375 C 56.555596 45.325961 56.566406 45.194925 56.566406 44.982422 C 56.566406 44.72088 56.548237 44.462533 56.511719 44.205078 z M 37.951172 44.480469 C 37.949143 44.652106 37.941936 44.915951 37.927734 45.271484 C 37.870928 46.709964 37.720019 48.020147 37.476562 49.201172 C 37.245279 50.316811 37.034457 50.873047 36.84375 50.873047 C 36.74231 50.873047 36.65687 50.781553 36.587891 50.597656 C 36.512825 50.397413 36.476562 50.133568 36.476562 49.806641 C 36.476562 49.242691 36.572889 48.535558 36.765625 47.685547 C 36.948217 46.880488 37.168048 46.155447 37.427734 45.509766 C 36.855612 45.546545 36.483146 45.564453 36.306641 45.564453 C 35.925226 45.564453 35.483461 45.526864 34.984375 45.449219 C 34.846416 46.017255 34.766533 46.347415 34.742188 46.441406 C 35.115487 46.384194 35.478944 46.355469 35.833984 46.355469 C 35.862388 46.355469 35.907886 46.357242 35.96875 46.361328 C 36.029614 46.365415 36.073159 46.369141 36.101562 46.369141 C 35.793184 46.863618 35.531459 47.425352 35.316406 48.054688 C 35.008028 48.961911 34.853516 49.866395 34.853516 50.769531 C 34.853516 51.329394 34.957125 51.765591 35.164062 52.076172 C 35.350712 52.35406 35.590665 52.492188 35.882812 52.492188 C 36.120182 52.492188 36.369144 52.370195 36.630859 52.125 C 36.967641 51.806246 37.27659 51.318097 37.558594 50.660156 C 37.530191 51.285405 37.477561 51.920725 37.398438 52.566406 C 37.382207 52.701264 37.380405 52.773077 37.392578 52.78125 C 37.396636 52.785337 37.42021 52.760157 37.464844 52.707031 C 37.767135 52.347411 38.083443 52.029661 38.412109 51.755859 C 38.846273 51.392153 39.189759 51.210938 39.443359 51.210938 L 39.509766 51.210938 L 39.466797 50.205078 C 39.361299 50.131519 39.246804 50.095703 39.123047 50.095703 C 38.983059 50.095703 38.857754 50.151381 38.744141 50.261719 L 38.744141 49.998047 C 38.744141 49.434097 38.765838 48.70533 38.8125 47.814453 C 38.853076 47.009395 38.894895 46.401027 38.9375 45.988281 C 38.951702 45.837077 39.040745 45.761719 39.205078 45.761719 C 39.328835 45.761719 39.474263 45.795762 39.640625 45.865234 C 39.671057 45.820282 39.6875 45.610341 39.6875 45.234375 C 38.713675 44.821629 38.133764 44.570374 37.951172 44.480469 z M 31.705078 44.621094 C 31.238453 45.250429 30.789481 45.564453 30.359375 45.564453 C 30.182869 45.564453 30.008386 45.51782 29.835938 45.423828 C 29.801448 45.407482 29.783203 45.429116 29.783203 45.486328 C 29.783203 45.531281 29.795967 45.744767 29.820312 46.128906 C 29.846687 46.508959 29.859375 46.729717 29.859375 46.791016 C 29.859375 46.819622 29.875742 46.828666 29.908203 46.816406 C 30.027902 46.77554 30.111541 46.753906 30.158203 46.753906 C 30.286018 46.753906 30.384221 46.806038 30.451172 46.908203 C 30.50595 46.985848 30.533203 47.269375 30.533203 47.759766 C 30.533203 48.213377 30.509553 48.852243 30.462891 49.677734 C 30.436516 50.10274 30.409187 50.529892 30.382812 50.958984 C 30.376726 51.118361 30.320417 51.256669 30.212891 51.371094 C 30.208833 51.371094 30.085253 51.473405 29.841797 51.677734 C 29.815422 51.698167 29.804536 51.730438 29.808594 51.775391 C 29.84917 52.17179 29.900073 52.460635 29.960938 52.644531 C 30.87187 52.174573 31.793313 51.941406 32.726562 51.941406 C 32.880752 51.941406 32.997049 51.944952 33.076172 51.953125 C 33.116748 51.589418 33.151284 51.27894 33.179688 51.021484 C 32.851021 50.976532 32.580287 50.910037 32.365234 50.824219 C 32.170469 50.742487 32.065059 50.650993 32.048828 50.548828 C 31.866236 49.35963 31.773438 48.474827 31.773438 47.894531 C 31.773438 47.191638 31.902498 46.647811 32.160156 46.263672 C 32.369123 45.953091 32.612755 45.798828 32.888672 45.798828 C 33.040832 45.798828 33.173421 45.858051 33.289062 45.976562 C 33.390503 46.082814 33.441406 46.183352 33.441406 46.277344 C 33.441406 46.334556 33.430596 46.3686 33.40625 46.380859 C 33.128304 46.515717 32.89736 46.734702 32.716797 47.037109 C 32.489571 47.417162 32.376953 47.880131 32.376953 48.427734 C 32.376953 48.909952 32.596859 49.152344 33.037109 49.152344 C 33.278537 49.152344 33.549422 49.071486 33.847656 48.912109 C 34.362972 48.642394 34.619141 48.222513 34.619141 47.650391 C 34.619141 47.405195 34.582803 47.101808 34.509766 46.742188 C 34.260223 45.552989 33.744131 44.958984 32.958984 44.958984 C 32.380776 44.958984 31.928124 45.265918 31.603516 45.878906 C 31.644092 45.363996 31.678704 44.943934 31.705078 44.621094 z M 29.224609 44.970703 C 28.502356 45.510133 27.724387 45.786568 26.892578 45.798828 C 26.892578 46.011331 26.948963 46.364897 27.060547 46.859375 C 27.133584 46.822596 27.209864 46.802734 27.291016 46.802734 C 27.548674 46.802734 27.677734 47.109668 27.677734 47.722656 C 27.677734 48.298866 27.645 48.889325 27.580078 49.494141 C 27.513128 50.131649 27.431443 50.569618 27.332031 50.806641 C 27.234649 51.039576 27.023827 51.193839 26.699219 51.271484 C 26.660671 51.67197 26.626135 52.023764 26.595703 52.326172 C 27.401138 52.027851 28.026244 51.878906 28.474609 51.878906 C 28.939205 51.878906 29.379169 51.954265 29.791016 52.105469 C 29.784929 51.463874 29.770364 50.964908 29.748047 50.609375 C 29.74196 50.511297 29.720112 50.477253 29.683594 50.505859 C 29.55375 50.616197 29.437378 50.671875 29.335938 50.671875 C 29.24667 50.671875 29.177598 50.609106 29.128906 50.482422 C 29.049783 50.278092 29.011719 49.841896 29.011719 49.175781 C 29.011719 48.215432 29.075235 47.011106 29.205078 45.564453 C 29.225366 45.327431 29.236328 45.164124 29.236328 45.074219 C 29.236328 45.017006 29.232725 44.982963 29.224609 44.970703 z M 44.611328 45.050781 C 42.970027 45.050781 42.148438 46.061122 42.148438 48.083984 C 42.148437 49.179191 42.324798 50.162759 42.675781 51.033203 C 43.085599 52.054851 43.632624 52.566406 44.318359 52.566406 C 44.914827 52.566406 45.360196 52.406645 45.652344 52.087891 C 45.853195 51.867215 46.02032 51.499285 46.15625 50.984375 C 46.204941 50.796392 46.230469 50.611451 46.230469 50.431641 C 46.230469 49.790046 45.968744 49.368392 45.445312 49.164062 C 45.250547 49.090504 45.065102 49.052734 44.890625 49.052734 C 44.637025 49.052734 44.435212 49.135364 44.287109 49.298828 C 44.141036 49.458205 44.068359 49.668146 44.068359 49.929688 C 44.068359 50.34652 44.153875 50.705405 44.322266 51.007812 C 44.490656 51.306134 44.706883 51.505437 44.972656 51.603516 C 44.997002 51.619862 45.009766 51.639543 45.009766 51.664062 C 45.009766 51.700842 44.986116 51.738611 44.939453 51.775391 C 44.819754 51.873469 44.688891 51.916557 44.546875 51.904297 C 44.295303 51.879777 44.089963 51.685972 43.929688 51.322266 C 43.718692 50.844134 43.613281 50.120866 43.613281 49.152344 C 43.613281 48.384065 43.634978 47.998047 43.681641 47.998047 C 43.714101 47.998047 44.079436 48.111175 44.777344 48.335938 C 45.56249 48.593393 46.12776 48.799788 46.472656 48.955078 C 46.492944 48.967338 46.503906 48.94943 46.503906 48.900391 C 46.512021 48.618416 46.515625 48.372479 46.515625 48.164062 C 46.515625 47.485688 46.466599 46.9275 46.367188 46.490234 C 46.148077 45.529885 45.562837 45.050781 44.611328 45.050781 z M 44.541016 45.976562 C 44.784472 45.976562 44.980804 46.050148 45.128906 46.197266 C 45.277009 46.340296 45.349609 46.525057 45.349609 46.753906 C 45.349609 47.199345 45.129703 47.421875 44.689453 47.421875 C 43.851558 47.421875 43.433594 47.159983 43.433594 46.632812 C 43.433594 46.424396 43.555296 46.257363 43.800781 46.134766 C 44.009748 46.028514 44.256983 45.976562 44.541016 45.976562 z M 13.007812 47.949219 C 13.297931 47.949219 13.532327 48.012168 13.712891 48.134766 C 13.88331 48.24919 13.96875 48.390863 13.96875 48.5625 C 13.96875 48.856735 13.817841 49.161895 13.517578 49.476562 C 13.201085 49.80349 12.873966 49.966797 12.535156 49.966797 C 12.236922 49.966797 11.978801 49.905801 11.761719 49.783203 C 11.520291 49.644259 11.400391 49.459318 11.400391 49.230469 C 11.400391 48.944407 11.57127 48.660881 11.912109 48.378906 C 12.263092 48.092845 12.628426 47.949219 13.007812 47.949219 z M 53.957031 47.949219 C 54.24715 47.949219 54.481546 48.012168 54.662109 48.134766 C 54.832529 48.24919 54.917969 48.390863 54.917969 48.5625 C 54.917969 48.856735 54.76706 49.161895 54.466797 49.476562 C 54.150304 49.80349 53.823185 49.966797 53.484375 49.966797 C 53.186141 49.966797 52.928019 49.905801 52.710938 49.783203 C 52.46951 49.644259 52.349609 49.459318 52.349609 49.230469 C 52.349609 48.944407 52.520489 48.660881 52.861328 48.378906 C 53.212311 48.092845 53.577645 47.949219 53.957031 47.949219 z "
     xlink:href="#text955"
     style="font-style:normal;font-weight:normal;font-size:8.26225662px;line-height:1.25;font-family:sans-serif;letter-spacing:0px;word-spacing:0px;fill:#ffffff;fill-opacity:1;stroke:none;stroke-width:0.20655641"
     id="path1569"
     inkscape:href="#text955"
     d="m 24.904297,39.679688 a 1.5542125,1.5542125 0 0 0 -1.474609,1.255859 c -0.07013,0.360718 -0.110749,0.560085 -0.160157,0.806641 h -0.0039 c -0.335183,-0.147005 -0.82017,-0.425818 -1.40625,-0.837891 a 1.5542125,1.5542125 0 0 0 -2.339844,0.703125 l -0.349609,0.888672 a 1.5542125,1.5542125 0 0 0 0.517578,1.814453 c 0.06475,0.04824 0.124528,0.09365 0.1875,0.140625 0.172141,1.648871 0.44974,3.325868 0.875,5.039062 0.392296,1.576166 0.707255,2.645989 1.171875,3.488282 A 1.5542125,1.5542125 0 0 0 23.601562,53.75 c 0.839946,-0.175832 1.453802,-0.242187 1.490235,-0.242188 a 1.5542125,1.5542125 0 0 0 0.427734,-0.0625 1.5542125,1.5542125 0 0 0 1.615235,0.337891 c 0.717836,-0.265876 1.235646,-0.349609 1.339843,-0.349609 0.06299,0 0.106827,0.02326 0.166016,0.02734 a 1.5542125,1.5542125 0 0 0 2.033203,0.564453 c 0.717578,-0.370205 1.378334,-0.529297 2.052734,-0.529297 0.130364,0 0.219445,0.0051 0.189454,0.002 a 1.5542125,1.5542125 0 0 0 1.169922,-0.363281 c 0.435506,0.495482 1.11158,0.912109 1.796874,0.912109 0.173607,0 0.251221,-0.143023 0.408204,-0.177734 0.01061,0.0091 0.02587,0.0228 0.04492,0.03906 0.0764,0.05193 0.445163,0.302671 0.445312,0.302735 1.65e-4,7e-5 0.509562,0.12108 0.509766,0.121093 4.06e-4,2.7e-5 0.628346,-0.08769 0.628906,-0.08789 5.6e-4,-2.01e-4 0.213249,-0.09367 0.27539,-0.13086 0.06214,-0.03719 0.104619,-0.06618 0.138672,-0.0918 0.136213,-0.102449 0.163929,-0.143159 0.197266,-0.177734 0.06667,-0.06915 0.09184,-0.09957 0.123047,-0.136719 0.0097,-0.01149 0.01963,-0.01794 0.0293,-0.0293 a 1.5542125,1.5542125 0 0 0 0.02344,0.02734 c 0.001,0.001 0.643149,0.390195 0.644531,0.390625 6.92e-4,2.15e-4 0.22802,0.05551 0.330079,0.06445 0.102059,0.0089 0.192994,0.0074 0.27539,0 0.329586,-0.0296 0.499512,-0.122825 0.621094,-0.189453 0.232163,-0.127228 0.303585,-0.210322 0.375,-0.283203 0.03602,-0.03472 -0.01883,-0.0011 0.0059,-0.02148 a 1.5542125,1.5542125 0 0 0 0.01172,0.0078 1.5542125,1.5542125 0 0 0 1.853516,-0.15625 c 0.459952,0.293937 0.945586,0.603516 1.49414,0.603516 0.873966,0 1.831526,-0.27438 2.480469,-0.982422 a 1.5542125,1.5542125 0 0 0 0.002,-0.0039 c 0.02679,-0.02943 0.02179,-0.06607 0.04687,-0.0957 0.52674,0.415206 1.159,0.707032 1.767578,0.707032 0.271841,0 0.263554,-0.01347 0.451172,-0.03125 a 1.5542125,1.5542125 0 0 0 0.002,0 c 0.681399,-0.06547 1.283839,-0.41054 1.847657,-0.789063 0.515011,0.54358 1.216002,0.96875 1.914062,0.96875 0.255276,0 0.476607,-0.0525 0.703125,-0.09961 a 1.5542125,1.5542125 0 0 0 2.25,-0.173828 c 0.01987,-0.02463 0.09639,-0.104033 0.28125,-0.201172 0.0089,-0.0047 -5.03e-4,2.47e-4 0.0078,-0.0039 a 1.5542125,1.5542125 0 0 0 2.166015,-1.503907 l -0.08398,-1.679687 a 1.5542125,1.5542125 0 0 0 -0.640625,-1.179688 c 0.0472,-0.599283 0.142578,-1.106006 0.142578,-1.808593 0,-0.179836 -0.0036,-0.407496 -0.0098,-0.701172 -8.19e-4,-0.03903 -0.0013,-0.04799 -0.002,-0.08398 a 1.5542125,1.5542125 0 0 0 0.279297,-0.392578 c 0.216591,-0.43627 0.169251,-0.550266 0.181641,-0.691406 0.01239,-0.14114 0.01563,-0.259975 0.01563,-0.392578 0,-0.333514 -0.02356,-0.666479 -0.07031,-0.996094 a 1.5542125,1.5542125 0 0 0 -2.46289,-1.03125 c -0.07797,0.05764 -0.678514,0.363056 -1.601563,0.646484 a 1.5542125,1.5542125 0 0 0 -0.642578,0.388672 c -0.03333,-0.0015 -0.05029,-0.03516 -0.08398,-0.03516 -0.394725,0 -0.719205,0.243922 -1.06836,0.425781 0.0014,-0.06264 0.0014,-0.08544 0.0039,-0.173828 v -0.01367 c 0.0082,-0.216413 0.01367,-0.386806 0.01367,-0.527343 0,-0.340954 -0.0058,-0.63159 -0.123046,-1.029297 A 1.5542125,1.5542125 0 0 0 50.753906,41.53125 c -0.01429,-0.0234 -0.06239,-0.103416 -0.0625,-0.103516 -4.36e-4,-3.83e-4 -0.200222,-0.153257 -0.289062,-0.201172 -0.08884,-0.04791 -0.168722,-0.07977 -0.238282,-0.103515 -0.278238,-0.095 -0.412135,-0.08594 -0.513671,-0.08594 -0.203074,0 -0.272391,0.02184 -0.341797,0.03516 a 1.5542125,1.5542125 0 0 0 -0.0918,0.01953 c -0.172173,0.04404 -0.522516,0.115489 -0.996094,0.193359 -0.475636,0.07821 -0.88108,0.101563 -0.695312,0.101563 -0.369563,0 -1.026575,0.329934 -1.259766,0.634765 -0.03127,0.03961 -0.05285,0.06288 -0.07031,0.08984 -0.08144,0.125738 -0.12102,0.221104 -0.15039,0.298828 -0.05874,0.155449 -0.07243,0.244096 -0.08398,0.316406 -0.01828,0.114369 -0.019,0.169454 -0.01953,0.228516 a 1.5542125,1.5542125 0 0 0 -0.71875,0.744141 c -0.213849,-0.03626 -0.400672,-0.203125 -0.611328,-0.203125 -0.501555,0 -1.002336,0.120375 -1.478516,0.291015 -0.0345,-0.730015 -0.04537,-1.490643 -0.138671,-2.148437 a 1.5542125,1.5542125 0 0 0 -1.876953,-1.298828 c -0.977377,0.218313 -1.6919,0.298454 -1.626954,0.300781 a 1.5542125,1.5542125 0 0 0 -1.68164,1.505859 c -0.0077,0.286367 -0.0035,0.536729 0.01758,0.78711 a 1.5542125,1.5542125 0 0 0 -1.351563,1.068359 c -0.02825,8.56e-4 -0.156231,0.0078 -0.167968,0.0078 -0.279312,0 -0.64726,-0.02776 -1.083985,-0.0957 a 1.5542125,1.5542125 0 0 0 -0.880859,0.121094 c -0.452285,-0.27242 -0.87792,-0.630859 -1.382813,-0.630859 -0.07385,0 -0.135556,0.06172 -0.208984,0.06836 a 1.5542125,1.5542125 0 0 0 -1.53125,-0.326172 c -0.06399,-0.610214 -0.242553,-1.245999 -0.642578,-1.701172 -0.51316,-0.584931 -1.356055,-0.964843 -2.13086,-0.964843 -0.545509,0 -1.171446,0.150099 -1.714843,0.578125 C 26.577896,40.84139 26.48462,40.712347 26.234375,40.349609 A 1.5542125,1.5542125 0 0 0 24.904297,39.679688 Z M 5.3710938,40.457031 a 1.5542125,1.5542125 0 0 0 -1.4882813,1.398438 c -0.014477,0.145798 -0.019531,0.284256 -0.019531,0.417969 0,0.220669 0.0033,0.406409 0.035156,0.634765 0.015927,0.114178 0.033186,0.236004 0.1054687,0.433594 0.048666,0.133032 0.3043025,0.379454 0.5234376,0.603515 -0.00107,0.155637 -4.386e-4,0.275653 -0.00391,0.492188 a 1.5542125,1.5542125 0 0 0 0,0.0078 c -0.00409,0.379328 -0.00586,0.663375 -0.00586,0.857422 0,2.008825 0.1652248,3.462399 0.3574219,4.861328 -0.1011248,0.08769 -0.281508,0.08299 -0.3535156,0.179688 A 1.5542125,1.5542125 0 0 0 4.21875,51.408203 l 0.1367188,1.544922 a 1.5542125,1.5542125 0 0 0 2.8515624,0.708984 c 0.048022,-0.01103 0.085877,-0.03125 0.3066407,-0.03125 0.5023824,0 1.0599262,0.08338 1.6816406,0.273438 l -0.015625,-0.0059 c 0.3489718,0.11099 1.0197445,0.07374 1.4394535,-0.234376 0.06148,-0.04514 0.03865,-0.0791 0.08789,-0.125 0.380161,0.194485 0.785813,0.355469 1.173828,0.355469 0.255276,0 0.476607,-0.0525 0.703125,-0.09961 a 1.5542125,1.5542125 0 0 0 2.25,-0.173828 c 0.02323,-0.0288 0.09669,-0.10522 0.279297,-0.201172 0.0087,-0.0046 -3.45e-4,1.63e-4 0.0078,-0.0039 a 1.5542125,1.5542125 0 0 0 2.167968,-1.503907 l -0.08398,-1.679687 a 1.5542125,1.5542125 0 0 0 -0.640625,-1.179688 c 0.04719,-0.599283 0.142578,-1.106006 0.142578,-1.808593 0,-0.179836 -0.0036,-0.407494 -0.0098,-0.701172 -8.19e-4,-0.03903 -0.0013,-0.04799 -0.002,-0.08398 a 1.5542125,1.5542125 0 0 0 0.279297,-0.392578 c 0.216588,-0.436262 0.16925,-0.550265 0.181641,-0.691406 0.01239,-0.141141 0.01563,-0.259973 0.01563,-0.392578 0,-0.333518 -0.02356,-0.666483 -0.07031,-0.996094 a 1.5542125,1.5542125 0 0 0 -2.46289,-1.03125 c -0.07797,0.05764 -0.678514,0.363056 -1.601563,0.646484 a 1.5542125,1.5542125 0 0 0 -0.642578,0.388672 c -0.03333,-0.0015 -0.05029,-0.03516 -0.08398,-0.03516 -0.625136,0 -1.267319,0.28628 -1.691406,0.675781 -0.241272,0.221595 -0.351743,0.499806 -0.507813,0.757813 -0.1568465,-0.04204 -0.2770633,-0.175781 -0.4296874,-0.175781 -0.1932839,0 -0.2626219,0.102622 -0.4160156,0.136718 0.1302453,-0.999098 0.2714509,-1.841316 0.4121094,-2.417968 A 1.5542125,1.5542125 0 0 0 8.4511719,41.035156 c -0.8892859,-0.164692 -1.5594775,-0.293797 -2,-0.382812 -0.2202613,-0.04451 -0.3858105,-0.08043 -0.4765625,-0.101563 -0.033605,-0.0078 -0.039923,-0.0085 -0.044922,-0.0098 a 1.5542125,1.5542125 0 0 0 -0.5585937,-0.08398 z m 41.2636722,1.205078 c -0.09245,0.07943 -0.33073,0.308594 -0.357422,0.34375 z M 5.2578125,44.416016 c 0.4035011,0.121887 -0.085315,-0.03889 0,0 z m 39.3222655,1.503906 c 0.185034,0.125839 0.408203,0.568074 0.408203,0.71289 0,0.391478 -0.405113,0.833016 -0.488281,0.88086 -0.09104,-0.01099 -0.310699,-0.07203 -0.455078,-0.207031 -0.146937,-0.147887 -0.25,-0.454327 -0.25,-0.552735 0,-0.03302 0.03089,-0.334517 0.285156,-0.591797 0.20866,-0.211134 0.394331,-0.226349 0.5,-0.242187 z M 7.0273438,46.943359 c -0.00137,0.0023 -5.83e-4,0.0055 -0.00195,0.0078 -9.413e-4,0.0016 -0.00297,0.0023 -0.00391,0.0039 z m 36.1132812,1.304688 c -0.0015,0.0016 -4.73e-4,0.0042 -0.002,0.0059 -0.001,0.0011 -0.0029,8.34e-4 -0.0039,0.002 z m -30.740234,0.148437 c 0.187659,0.131166 0.680985,0.276079 0.554687,0.833985 0,0.221876 -0.01983,0.201955 -0.03516,0.230469 -0.03252,-0.0095 -0.01669,-2.3e-4 -0.07617,-0.03906 -0.123984,-0.0853 -0.429688,-0.516835 -0.429688,-0.859375 0,-0.237134 0.111885,-0.29797 -0.02148,-0.158203 z m 40.949218,0 c 0.187661,0.131169 0.680982,0.276066 0.554688,0.833985 0,0.221879 -0.01983,0.201956 -0.03516,0.230469 -0.03252,-0.0095 -0.01669,-2.29e-4 -0.07617,-0.03906 -0.123984,-0.0853 -0.429688,-0.516835 -0.429688,-0.859375 0,-0.237134 0.111884,-0.29797 -0.02148,-0.158203 z m -18.769531,1.886719 c -0.0039,0.002 -0.0091,0.0033 -0.0078,0.002 0.0023,-0.0012 0.0055,-7.41e-4 0.0078,-0.002 z m -19.576172,1.744141 c -0.04177,0.06627 -0.219112,0.22191 -0.15039,0.179687 0.0436,-0.0647 0.110321,-0.113389 0.15039,-0.179687 z m 40.949219,0 c -0.04177,0.06627 -0.219112,0.22191 -0.150391,0.179687 0.0436,-0.0647 0.110322,-0.113389 0.150391,-0.179687 z m -11.970703,0.634765 c 0.172533,0.11899 0.252141,0.324268 0.453125,0.398438 l -0.330078,-0.166016 c -0.04653,-0.03124 -0.06902,-0.176573 -0.123047,-0.232422 z" />
  <text
     xml:space="preserve"
     style="font-style:normal;font-weight:normal;font-size:8.84548664px;line-height:1.25;font-family:sans-serif;letter-spacing:0px;word-spacing:0px;fill:#000000;fill-opacity:1;stroke:none;stroke-width:0.22113717"
     x="7.8049893"
     y="36.605625"
     id="text955"
     transform="scale(0.70459464,1.4192558)"><tspan
       sodipodi:role="line"
       id="tspan953"
       x="7.8049893"
       y="36.605625"
       style="font-style:normal;font-variant:normal;font-weight:normal;font-stretch:normal;font-family:Ravie;-inkscape-font-specification:Ravie;fill:#ff2a2a;stroke-width:0.22113717">La  Viruleta</tspan></text>
  <g
     transform="matrix(0.25772019,0,0,0.26430531,23.973261,12.715597)"
     style="fill:none;fill-rule:evenodd"
     id="Page-1">
    <g
       style="fill-rule:nonzero"
       id="031---No-Virus">
      <path
         style="fill:#e54c3c"
         inkscape:connector-curvature="0"
         id="Shape"
         d="M 29,0 C 12.983742,0 0,12.983742 0,29 0,45.016258 12.983742,58 29,58 45.016258,58 58,45.016258 58,29 58,12.983742 45.016258,0 29,0 Z M 9.28,44.34 C 1.5295592,34.395577 2.404126,20.234487 11.319307,11.319307 20.234487,2.404126 34.395577,1.5295592 44.34,9.28 44.562536,9.4558018 44.698795,9.7187549 44.714103,10.00194 44.72941,10.285126 44.622289,10.561235 44.42,10.76 L 10.76,44.42 c -0.198765,0.202289 -0.474874,0.30941 -0.75806,0.294103 C 9.7187549,44.698795 9.4558018,44.562536 9.28,44.34 Z m 21.81,9.57 C 24.83302,54.443616 18.605922,52.58942 13.66,48.72 13.437464,48.544198 13.301205,48.281245 13.285897,47.99806 13.27059,47.714874 13.377711,47.438765 13.58,47.24 L 47.24,13.58 c 0.198765,-0.202289 0.474874,-0.30941 0.75806,-0.294103 0.283185,0.01531 0.546138,0.151567 0.72194,0.374103 5.637724,7.234534 6.857614,16.976723 3.17776,25.377978 C 48.217906,47.439233 40.230148,53.148358 31.09,53.91 Z" />
      <path
         style="fill:#ffffff"
         inkscape:connector-curvature="0"
         id="path907"
         d="M 53.91,31.09 C 53.148358,40.230148 47.439233,48.217906 39.037978,51.89776 30.636723,55.577614 20.894534,54.357724 13.66,48.72 13.437464,48.544198 13.301205,48.281245 13.285897,47.99806 13.27059,47.714874 13.377711,47.438765 13.58,47.24 L 47.24,13.58 c 0.198765,-0.202289 0.474874,-0.30941 0.75806,-0.294103 0.283185,0.01531 0.546138,0.151567 0.72194,0.374103 3.86942,4.945922 5.723616,11.17302 5.19,17.43 z" />
      <path
         style="fill:#ffffff"
         inkscape:connector-curvature="0"
         id="path909"
         d="M 44.42,10.76 10.76,44.42 c -0.198765,0.202289 -0.474874,0.30941 -0.75806,0.294103 C 9.7187549,44.698795 9.4558018,44.562536 9.28,44.34 1.5295592,34.395577 2.404126,20.234487 11.319307,11.319306 20.234487,2.404126 34.395577,1.5295592 44.34,9.28 c 0.222536,0.1758018 0.358795,0.4387549 0.374103,0.72194 0.01531,0.283186 -0.09181,0.559295 -0.294103,0.75806 z" />
      <g
         style="fill:#338f7c"
         id="g926">
        <path
           inkscape:connector-curvature="0"
           id="Rectangle-path"
           d="m 28,11 h 2 v 6 h -2 z" />
        <path
           inkscape:connector-curvature="0"
           id="path912-1"
           d="m 20.5,13.171 h 2 v 5.679 h -2 z"
           transform="matrix(0.866,-0.5,0.5,0.866,-5.125,12.896)" />
        <path
           inkscape:connector-curvature="0"
           id="path914-9"
           d="m 15.009,18.527 h 2 v 5.948 h -2 z"
           transform="matrix(0.5,-0.866,0.866,0.5,-10.616,24.615)" />
        <path
           inkscape:connector-curvature="0"
           id="path916-0"
           d="m 11,28 h 6 v 2 h -6 z" />
        <path
           inkscape:connector-curvature="0"
           id="path918-7"
           d="m 28,41 h 2 v 6 h -2 z" />
        <path
           inkscape:connector-curvature="0"
           id="path920-7"
           d="m 35.5,39.151 h 2 v 5.679 h -2 z"
           transform="matrix(0.866,-0.5,0.5,0.866,-16.106,23.876)" />
        <path
           inkscape:connector-curvature="0"
           id="path922-2"
           d="m 40.99,33.527 h 2 v 5.948 h -2 z"
           transform="matrix(0.5,-0.866,0.866,0.5,-10.615,54.617)" />
        <path
           inkscape:connector-curvature="0"
           id="path924-7"
           d="m 41,28 h 6 v 2 h -6 z" />
      </g>
      <circle
         style="fill:#f2d45b"
         id="Oval"
         cx="29"
         cy="10"
         r="2" />
      <circle
         style="fill:#f2d45b"
         id="circle929"
         cx="19.5"
         cy="12.546"
         r="2" />
      <circle
         style="fill:#f2d45b"
         id="circle931"
         cx="12.546"
         cy="19.5"
         r="2" />
      <circle
         style="fill:#f2d45b"
         id="circle933"
         cx="10"
         cy="29"
         r="2" />
      <circle
         style="fill:#f2d45b"
         id="circle935"
         cx="29"
         cy="48"
         r="2" />
      <circle
         style="fill:#f2d45b"
         id="circle937"
         cx="38.5"
         cy="45.453999"
         r="2" />
      <circle
         style="fill:#f2d45b"
         id="circle939"
         cx="45.453999"
         cy="38.5"
         r="2" />
      <circle
         style="fill:#f2d45b"
         id="circle941"
         cx="48"
         cy="29"
         r="2" />
      <path
         style="fill:#26b899"
         inkscape:connector-curvature="0"
         id="path943"
         d="M 18.51,36.67 C 14.724826,31.498322 15.275656,24.339187 19.807421,19.807421 24.339186,15.275656 31.498322,14.724826 36.67,18.51 Z" />
      <path
         style="fill:#26b899"
         inkscape:connector-curvature="0"
         id="path945"
         d="m 39.49,21.33 c 3.785174,5.171678 3.234344,12.330813 -1.297421,16.862579 C 33.660813,42.724344 26.501678,43.275174 21.33,39.49 Z" />
      <path
         style="fill:#f4eec9"
         inkscape:connector-curvature="0"
         id="path947"
         d="m 30.45,24.73 c 0.898628,-1.272505 0.67376,-3.021088 -0.517593,-4.02482 -1.191352,-1.003733 -2.952733,-0.928595 -4.054278,0.17295 -1.101544,1.101544 -1.176682,2.862925 -0.172949,4.054277 1.003732,1.191353 2.752315,1.416221 4.02482,0.517593" />
      <path
         style="fill:#f4eec9"
         inkscape:connector-curvature="0"
         id="path949"
         d="m 29.73,31.09 c 0.252254,-0.06007 0.510693,-0.09027 0.77,-0.09 1.932997,0 3.5,1.567003 3.5,3.5 0,1.932997 -1.567003,3.5 -3.5,3.5 -1.932997,0 -3.5,-1.567003 -3.5,-3.5 -2.74e-4,-0.259307 0.02993,-0.517746 0.09,-0.77" />
      <circle
         style="fill:#f8e9af"
         id="circle951"
         cx="37"
         cy="30"
         r="1" />
      <circle
         style="fill:#f8e9af"
         id="circle953"
         cx="21"
         cy="27"
         r="1" />
    </g>
  </g>
</svg>
